<svg xmlns="http://www.w3.org/2000/svg" viewBox="0 0 240.94 22.59"><defs><style>.cls-1{fill:#fffdf2;fill-rule:evenodd;}</style></defs><title>text-divider-bottom</title><g id="Layer_2" data-name="Layer 2"><g id="Õ__1" data-name="Õº≤„_1"><path class="cls-1" d="M0,.62H111.7a6.09,6.09,0,0,0-4.45,3,5.62,5.62,0,0,0,2.06,7.27c4,2.29,8.38-2.13,6.2-5.23a2.61,2.61,0,0,0-3.14-1.14,2.08,2.08,0,0,0-1.49,1.62,2.08,2.08,0,0,0,1,2.13,1.94,1.94,0,0,0,1.33.13,1,1,0,0,0,.55-.37c.13-.17.22-.46.46-.5.46-.08.38.65.3.88A2.82,2.82,0,0,1,112.72,10a3.52,3.52,0,0,1-3.31-.61,4.68,4.68,0,0,1-1-1.31,3.64,3.64,0,0,1-.46-2A4.62,4.62,0,0,1,111.09,2a5.83,5.83,0,0,1,6.09,1.49,8.56,8.56,0,0,1,1.73,7.78,7.55,7.55,0,0,1-1.32,2.44,4.08,4.08,0,0,1-.93.83,4.25,4.25,0,0,1-.94.47,2.33,2.33,0,0,0-.81-1.66c-.61-.62-2.14-.45-2.14-.45a2.34,2.34,0,0,1-.82,2.82,4.58,4.58,0,0,1-2.7.91,7.59,7.59,0,0,1-5.49-1.77c-2-1.8-2.69-4.2-1.33-6.61.67-1.19,3.76-2.77.6-3.84a3.21,3.21,0,0,0-3.15.8,3.82,3.82,0,0,0-1.1,2.95q-.41-.59-.84-1.16c-3.09-4.12-8.07-6-12.71-4.06C82.79,4,81.81,5.62,79.65,7s-4.3,1.56-6-.34c-.45-.51-.88-2.31-.05-2.74,1.19-.62-.4,1.75,1.78,2.38A2.07,2.07,0,0,0,77.89,5a2.52,2.52,0,0,0-.68-2.63,3.41,3.41,0,0,0-3.76-.27,3.36,3.36,0,0,0-1.59,3A4.05,4.05,0,0,0,74,8.68c3.54,1.9,6.79-.4,9.22-3,0,0-1.67,3.09.31,5.6a4.69,4.69,0,0,0,5,1.18,4,4,0,0,0,2.45-3,2.52,2.52,0,0,0-1.27-2.85,2.35,2.35,0,0,0-3,1A1.78,1.78,0,0,0,89,10c-.57,1.51-2.92,1.59-4.15.33a3.36,3.36,0,0,1-.7-3.73c1.6-3.78,7.58-4.77,12,.45A13.17,13.17,0,0,1,97.9,9.84a3.13,3.13,0,0,0-3.09,1c-1,1.38-.25,4.1,1,3.48s1.88-.4,3.11.14c2.18,1,3,1.78,4.65,2.65a13.51,13.51,0,0,0,6,1.4,11.71,11.71,0,0,0,4.24-.7,11.56,11.56,0,0,0,6.62-6.69,11.56,11.56,0,0,0,6.61,6.69,11.71,11.71,0,0,0,4.24.7,13.51,13.51,0,0,0,6-1.4c1.67-.87,2.47-1.69,4.65-2.65,1.24-.54,1.75-.81,3.11-.14s2-2.1,1-3.48a3.13,3.13,0,0,0-3.09-1,13.17,13.17,0,0,1,1.73-2.76c4.39-5.22,10.38-4.23,12-.45a3.36,3.36,0,0,1-.7,3.73c-1.24,1.27-3.59,1.18-4.15-.33a1.78,1.78,0,0,0,2.28-2.43,2.35,2.35,0,0,0-3-1,2.52,2.52,0,0,0-1.27,2.85,4,4,0,0,0,2.45,3,4.69,4.69,0,0,0,5-1.18c2-2.52.31-5.6.31-5.6,2.43,2.63,5.69,4.92,9.22,3a4,4,0,0,0,2.18-3.58,3.36,3.36,0,0,0-1.59-3,3.41,3.41,0,0,0-3.76.27A2.52,2.52,0,0,0,163.05,5a2.07,2.07,0,0,0,2.49,1.27c2.18-.62.59-3,1.78-2.38.82.43.4,2.23-.05,2.74-1.67,1.89-3.68,1.81-6,.34s-3.14-3-5.57-4.08C151.08,1,146.1,2.88,143,7q-.43.57-.84,1.16a3.82,3.82,0,0,0-1.1-2.95,3.21,3.21,0,0,0-3.15-.8c-3.17,1.07-.07,2.66.6,3.84,1.36,2.41.68,4.81-1.33,6.61a7.59,7.59,0,0,1-5.49,1.77,4.57,4.57,0,0,1-2.7-.91,2.33,2.33,0,0,1-.82-2.82s-1.53-.16-2.15.45a2.33,2.33,0,0,0-.81,1.66,4.25,4.25,0,0,1-.94-.47,4.08,4.08,0,0,1-.93-.83A7.55,7.55,0,0,1,122,11.28a8.56,8.56,0,0,1,1.73-7.78A5.83,5.83,0,0,1,129.85,2,4.62,4.62,0,0,1,133,6.09a3.66,3.66,0,0,1-.45,2,4.72,4.72,0,0,1-1,1.31,3.52,3.52,0,0,1-3.31.61,2.82,2.82,0,0,1-1.83-1.56c-.08-.24-.16-1,.3-.88.24,0,.34.33.46.5a1,1,0,0,0,.55.37A2,2,0,0,0,129,8.28a2.08,2.08,0,0,0,1-2.13,2.07,2.07,0,0,0-1.49-1.62,2.61,2.61,0,0,0-3.14,1.14c-2.18,3.1,2.18,7.52,6.2,5.23a5.62,5.62,0,0,0,2.06-7.27,6.09,6.09,0,0,0-4.45-3h111.7V0H0ZM121.1,4.11a11.22,11.22,0,0,1,.56-3.49h5a7.77,7.77,0,0,0-.84.17c-3.37.93-4.67,4.61-4.67,4.61S121.1,4.19,121.1,4.11ZM114.26.62h5a11.1,11.1,0,0,1,.56,3.49c0,.08-.07,1.3-.07,1.3s-1.3-3.68-4.67-4.61A7.77,7.77,0,0,0,114.26.62Zm6.21,14.66a6.56,6.56,0,0,0,3.87,3.65,6.56,6.56,0,0,0-3.87,3.65,6.57,6.57,0,0,0-3.87-3.65A6.57,6.57,0,0,0,120.47,15.29Z"/></g></g></svg>
