<svg xmlns="http://www.w3.org/2000/svg" viewBox="0 0 248.95 15.31"><defs><style>.cls-1{fill:#fffdf2;fill-rule:evenodd;}</style></defs><title>text-divider-1</title><g id="Layer_2" data-name="Layer 2"><g id="Õ__1" data-name="Õº≤„_1"><path class="cls-1" d="M107.81,9.3c5.85-2.89,11.28-6.07,17.75-7.9a31.29,31.29,0,0,1,13-1.15.12.12,0,0,1,0,.23,37.36,37.36,0,0,0-10,2.89c-6.42,2.81-12,6.47-18.88,8.59-3.29,1-6.62,1.47-9.84.27A5.4,5.4,0,0,1,96,7.33H4.54A2.3,2.3,0,0,1,2.33,9,2.32,2.32,0,1,1,4.54,6h91.6a4.14,4.14,0,0,1,2.79-2.89c.14,0,.22.17.13.2A3.84,3.84,0,0,0,96.61,6h3.08a2.32,2.32,0,0,1,4.46,0h.09V7.33h-.09a2.32,2.32,0,0,1-4.46,0H96.6a1.2,1.2,0,0,0,.07.25,4.76,4.76,0,0,0,3,3.21c2.82,1,5.64-.24,8.14-1.48Zm.65,5.46c-.32,0-.32.07,0,.17.12,0,11.64,3.26,32.15-10,2.8-1.8,6.72-3.47,9.67-1.08A3.38,3.38,0,0,1,151.5,6h-2.24a2.32,2.32,0,1,0,0,1.29h2.2a4,4,0,0,1-1.64,2.5c-.06,0,0,.17.14.14.75-.17,1.62-1.44,1.9-2.65h92.55a2.32,2.32,0,0,0,4.46,0H249V6h-.09a2.32,2.32,0,0,0-4.46,0h-92.5a5.49,5.49,0,0,0-4-4.34c-3.84-1.14-7.77.17-11.29,1.75C129.89,6.43,118.43,14.18,108.46,14.77Z"/></g></g></svg>
