<svg xmlns="http://www.w3.org/2000/svg" viewBox="0 0 55.89 15.31"><defs><style>.cls-1{fill:#fffdf2;}</style></defs><title>text-divider2</title><g id="Layer_2" data-name="Layer 2"><g id="Õ__1" data-name="Õº≤„_1"><path class="cls-1" d="M0,7.33a5.4,5.4,0,0,0,3.88,4.91c3.22,1.19,6.54.73,9.84-.27,6.92-2.11,12.47-5.78,18.88-8.59a37.36,37.36,0,0,1,10-2.89.12.12,0,0,0,0-.23,31.29,31.29,0,0,0-13,1.15c-6.47,1.83-11.89,5-17.75,7.9-2.5,1.24-5.32,2.49-8.14,1.48-1.47-.52-2.52-.93-3-3.21a1.21,1.21,0,0,1-.07-.25"/><path class="cls-1" d="M.69,7.58a4.27,4.27,0,0,1,2.4-4.23c.09,0,0-.25-.13-.2C1.52,3.59.13,4.71,0,7.33"/><path class="cls-1" d="M55.88,7.33a5.13,5.13,0,0,0-4-5.64C48.05.56,44.13,1.87,40.6,3.45c-6.69,3-18.15,10.73-28.12,11.32-.32,0-.32.07,0,.17.12,0,11.64,3.26,32.15-10,2.8-1.8,6.72-3.47,9.67-1.08a4.56,4.56,0,0,1,1.18,3.47"/><path class="cls-1" d="M55.48,7.33a3.51,3.51,0,0,1-1.64,2.5c-.06,0,0,.17.14.14a3.26,3.26,0,0,0,1.9-2.65"/></g></g></svg>
