<svg xmlns="http://www.w3.org/2000/svg" viewBox="0 0 97.72 50.38"><defs><style>.cls-1,.cls-2{fill:#3a322e;}.cls-2{stroke:#3a322e;stroke-miterlimit:10;}</style></defs><title>label-1</title><g id="Layer_2" data-name="Layer 2"><g id="Isolation_Mode" data-name="Isolation Mode"><path class="cls-1" d="M52.69,7.38c.29.29-.12.76-.4.87A1.85,1.85,0,0,1,50.9,8a2.38,2.38,0,0,1-1-2.11c-.05-1.75,1.63-3,3.16-3.42a8,8,0,0,1,5.08.35A33.1,33.1,0,0,1,63,5.49a27.15,27.15,0,0,0,4.14,2.16,7.1,7.1,0,0,0,4.36.47,3.06,3.06,0,0,0,2.37-2.79,2.18,2.18,0,0,0-2-2.31c-1.05-.14-2.41.75-2,2,.24.78,1.63,1.09,1.84.14,0-.16-.21-.23-.25-.07-.12.52-.76.47-1.1.2-.54-.43-.21-1.21.2-1.59a1.91,1.91,0,0,1,3,1,2.56,2.56,0,0,1-.39,2.06,3,3,0,0,1-1.88,1.19,7.52,7.52,0,0,1-4.65-.77c-3.1-1.35-5.74-3.68-9-4.77a8.1,8.1,0,0,0-4.77-.06,4.33,4.33,0,0,0-3.11,3,2.75,2.75,0,0,0,1.26,3,1.73,1.73,0,0,0,1.67,0c.32-.28.59-.79.23-1.14-.12-.12-.3.07-.18.18Z"/><path class="cls-1" d="M50.84,3.77a6.14,6.14,0,0,1,4-1.11c1.24.08,2.69.8,2.82,2.17a2.27,2.27,0,0,1-2.36,2.58,1.43,1.43,0,0,1-1.24-1.34,1,1,0,0,1,.76-.83.61.61,0,0,1,.68.61c0,.17.25.17.26,0a.88.88,0,0,0-1-.87,1.21,1.21,0,0,0-.94,1.29,1.7,1.7,0,0,0,1.06,1.27,2.1,2.1,0,0,0,1.71-.14,2.67,2.67,0,0,0,1.18-3.29,3.44,3.44,0,0,0-3.09-1.75,6.29,6.29,0,0,0-4,1.15c-.13.1,0,.33.13.22Z"/><path class="cls-1" d="M74.51,6.58a.58.58,0,0,0-.91-.51.93.93,0,0,0-.18,1.34,3.39,3.39,0,0,0,3.46.78A3.7,3.7,0,0,0,79.5,5.44a2,2,0,0,0-.39-1.82,2.41,2.41,0,0,0-1.88-.78,1.82,1.82,0,0,0-1.37.64,1.2,1.2,0,0,0-.25,1.27,1.09,1.09,0,0,0,1.2.59.59.59,0,0,0,.46-.85c-.06-.15-.29,0-.22.13.18.42-.39.52-.68.46a.8.8,0,0,1-.57-.95,1.52,1.52,0,0,1,1.61-1,2,2,0,0,1,1.82,1.21,2.61,2.61,0,0,1-.36,2,3.66,3.66,0,0,1-3.44,1.7,2.91,2.91,0,0,1-1.69-.69.72.72,0,0,1-.2-.85c.15-.34.76-.43.71.05,0,.17.24.16.26,0Z"/><path class="cls-1" d="M77.56,8A9.05,9.05,0,0,1,82,6.05a5,5,0,0,1,3.49.87c1,.78,1.36,2.46.33,3.34a1.76,1.76,0,0,1-1.76.21.9.9,0,0,1-.37-.92.64.64,0,0,1,1-.35c.13.1.31-.08.18-.18a.89.89,0,0,0-1.37.29A1.11,1.11,0,0,0,84,10.72a2.09,2.09,0,0,0,1.68-.06,1.84,1.84,0,0,0,1-1.35A2.88,2.88,0,0,0,84.9,6.26a6.12,6.12,0,0,0-4-.29,10.8,10.8,0,0,0-3.46,1.79c-.13.09,0,.32.13.22Z"/><path class="cls-1" d="M77.18,8.1A3.29,3.29,0,0,1,80,8.48a.79.79,0,0,1,0,1.18.53.53,0,0,1-.67,0c-.13-.11-.13-.45.11-.31a.13.13,0,0,0,.13-.22c-.46-.26-.78.33-.46.68.49.53,1.21.05,1.37-.51s-.4-1.19-1-1.42a4,4,0,0,0-2.44-.07.13.13,0,0,0,.07.25Z"/><path class="cls-1" d="M86.63,11c-.46.21-.61-.36-.42-.67a.88.88,0,0,1,.61-.31,2.25,2.25,0,0,1,1.57.33,3.11,3.11,0,0,1,1.5,3.17,1.92,1.92,0,0,1-1,1.3,1.52,1.52,0,0,1-1.62-.21c-.52-.51.15-1.67.73-.94.1.13.29-.05.18-.18-.59-.75-1.47,0-1.35.78a1.18,1.18,0,0,0,1,.9,1.89,1.89,0,0,0,1.72-.52c1-1,.71-2.7-.12-3.72a3.27,3.27,0,0,0-1.77-1.16,1.87,1.87,0,0,0-1.53.26c-.55.5-.16,1.56.63,1.19.15-.07,0-.29-.13-.22Z"/><path class="cls-1" d="M89.94,13.28a27.57,27.57,0,0,0-.38,2.86,3.07,3.07,0,0,0,.37,2,2.38,2.38,0,0,0,2.87.82,2,2,0,0,0,1-2.73c-.57-.89-2.51-.91-2.44.41,0,.63,1.05.93,1.23.23,0-.16-.21-.23-.25-.07-.08.34-.44.23-.62,0s0-.69.21-.85a1.35,1.35,0,0,1,1.55.25c.83.84,0,2.2-.91,2.53A2.13,2.13,0,0,1,90,17.8a3.34,3.34,0,0,1-.21-1.9c.06-.86.22-1.71.36-2.55,0-.16-.22-.23-.25-.07Z"/><path class="cls-1" d="M89.71,17.73c.13,1,1.1,1.51,1.87,1.9,1,.49,2,.88,2.91,1.42S96.8,22.63,96.38,24A1.44,1.44,0,0,1,95,25a1,1,0,0,1-.77-.36c-.21-.29,0-1,.37-.56.11.13.29-.06.18-.18-.37-.44-.88,0-.91.43s.65.9,1.14.94a1.63,1.63,0,0,0,1.46-.89,2,2,0,0,0,0-1.86A4,4,0,0,0,95,21a20.35,20.35,0,0,0-2-1c-.56-.28-1.14-.51-1.68-.82A2.44,2.44,0,0,1,90,17.79s0-.09,0-.13-.27-.09-.25.07Z"/><path class="cls-1" d="M50.12,7a1.45,1.45,0,0,1,.49-1.74,1,1,0,0,1,1.45.32.75.75,0,0,1-.49,1.13c-.48.06-.78-.72-.21-.65.16,0,.16-.24,0-.26-.66-.09-.72.68-.29,1a.84.84,0,0,0,.91,0A1,1,0,0,0,52.41,6a1.19,1.19,0,0,0-1.53-1.17,1.6,1.6,0,0,0-1,.77,2,2,0,0,0,0,1.44c0,.16.29.09.25-.07Z"/><path class="cls-1" d="M62.07,4.95c1,.62,3.55,1.55,4.22,0a1.42,1.42,0,0,0-.1-1.34,1,1,0,0,0-1.29-.38c-.35.16-.68.52-.46.92a.58.58,0,0,0,.86.24c.13-.1,0-.32-.13-.22-.3.23-.65-.16-.48-.46a.8.8,0,0,1,.64-.31.79.79,0,0,1,.64.35,1.13,1.13,0,0,1-.52,1.68,3,3,0,0,1-1.74-.06,5.76,5.76,0,0,1-1.49-.62.13.13,0,0,0-.13.22Z"/><path class="cls-1" d="M50.87,3.75c.48-.41,1.05-1,.93-1.74a1.17,1.17,0,0,0-1.17-1c-.45,0-.93.37-.79.86a.52.52,0,0,0,1,.13c.07-.15-.15-.28-.22-.13-.18.38-.69-.08-.41-.42a.8.8,0,0,1,.92-.08,1,1,0,0,1,.41,1.15,2.43,2.43,0,0,1-.81,1.05c-.13.11.06.29.18.18Z"/><path class="cls-1" d="M62.34,5.15c.5.34,1,1.11.64,1.71a.91.91,0,0,1-1,.35.48.48,0,0,1-.35-.45c0-.17.28-.38.32-.12s.28.09.25-.07c-.08-.46-.69-.36-.8,0-.17.58.43,1,1,.89a1.07,1.07,0,0,0,1-1.08,1.94,1.94,0,0,0-.88-1.48c-.14-.09-.27.13-.13.22Z"/><path class="cls-1" d="M86.61,11.26a.51.51,0,0,0,.45-.52.35.35,0,0,0-.49-.34c-.15.06-.09.31.07.25s.16,0,.16.11a.24.24,0,0,1-.19.24c-.16,0-.17.28,0,.26Z"/><path class="cls-1" d="M71.69,5a.56.56,0,0,0-.45-.61c-.31-.08-.54.05-.55.38,0,.17.25.17.26,0s.16-.16.31-.11.18.19.18.34a.13.13,0,0,0,.26,0Z"/><path class="cls-1" d="M77.25,4.43a.42.42,0,0,0-.44-.19.31.31,0,0,0-.25.39c0,.16.28.09.25-.07a.22.22,0,0,1,0,0s0,0,0,0l.05,0a.16.16,0,0,1,.15.07c.08.15.3,0,.22-.13Z"/><path class="cls-1" d="M49.76,5.28a2.31,2.31,0,0,1,.28-1c.14-.3.38-.55.52-.86.22-.5,0-1.31-.71-1.19a.53.53,0,0,0-.41.38s0,.28.09.21-.12-.17,0-.21c.37-.1,0,.88,0,1a2.11,2.11,0,0,1,.06.52c-.1-.11,0-.33-.19-.41a.62.62,0,0,0,0,.1.62.62,0,0,0-.56-.16c.06.17,0,.41.17.53a.27.27,0,0,1-.15-.14.86.86,0,0,0,.24.77c.14.19.4.43.38.69-.19-.1-.1-.37-.38-.45a.55.55,0,0,0,0,.15c-.21-.28-.69.19-.45.24a.24.24,0,0,1,0-.06.25.25,0,0,1,.12,0c0,.13.14.21.17.36a.86.86,0,0,0,.11.36A.47.47,0,0,0,49,6.08c0,.3.31.5.52.67a1.19,1.19,0,0,1,.3.35.81.81,0,0,0,.24.27c0-.18-.14-.35-.17-.53a5.13,5.13,0,0,1,0-.91A3.66,3.66,0,0,1,50,4.78Z"/><path class="cls-1" d="M51.58,3.25A2.07,2.07,0,0,1,52.14,3a3.07,3.07,0,0,1,.71-.23c.26,0,.89-.1,1,.21a.23.23,0,0,0-.15,0c.26,0,.47.35.58.57s.16.4.09.52-.1,0-.22,0a1.58,1.58,0,0,1-.66,0,2.64,2.64,0,0,0-.59-.21c.06.05.14.1.14.19s-.28,0-.43.05A1.17,1.17,0,0,1,52,4c-.18-.07-.81-.33-1-.13.12,0,.39,0,.44.12-.1,0-.29.13-.41.16a1.31,1.31,0,0,0-.45.17,2.14,2.14,0,0,0-.67.78A1.93,1.93,0,0,1,50.53,4a7.77,7.77,0,0,1,.89-.78Z"/><path class="cls-1" d="M59.55,3.4c.37.15,1.12.6,1,1.08a.18.18,0,0,0-.15-.1,1.29,1.29,0,0,1-.26,1.5c0-.18-.24-.22-.35-.34s-.08-.35-.17-.5a.23.23,0,0,0,0,.17c-.53.06-.15-1.6-.64-1.57.07.18.3.49.13.69-.09-.12-.22-.12-.27-.29a.4.4,0,0,1,0,.1l-.08,0c-.32-.2-.29-.67-.55-.94a6.57,6.57,0,0,0-.84-.69,1.29,1.29,0,0,1,.53.13,4,4,0,0,1,.59.24Z"/><path class="cls-1" d="M66.32,7.12c.36.24,2.71.79,2.76.22l-.18-.07c.16,0,.41-.25.49-.37a1.27,1.27,0,0,0,.17-.9A.68.68,0,0,0,69,5.45c-.17,0-.46.06-.45.28.16-.19.26.11.26.24s-.16.35-.25.52c0-.09.07-.18,0-.25a1.48,1.48,0,0,1-.64.51c-.19.09-.74.33-.91.16.08-.08.3,0,.41-.09a.54.54,0,0,0,.37-.38c-.08,0-.13.08-.21.11.16-.21.27-.9-.13-.93,0,.11-.19.16-.27.23a1.77,1.77,0,0,1-.47.43A.38.38,0,0,0,66.72,6a2.94,2.94,0,0,0-.56.17,2.63,2.63,0,0,1-.74.08,2.42,2.42,0,0,1-.57,0c-.13,0-.34-.14-.48-.11.12.23.49.34.69.49Z"/><path class="cls-1" d="M52.33,8.3c-.23.18-1.36,0-1.31-.37l.06,0c-.07-.15-.2-.74.11-.75a.72.72,0,0,0,.37.58c-.05,0-.11-.12-.06-.19.08.1.13.21.3.27a1,1,0,0,0,.52,0,.44.44,0,0,0,.37-.29c0-.09,0-.33.13-.32,0,.18.17.42,0,.58Z"/><path class="cls-1" d="M55.64,5.52c.42.34-.31,1-.59.57-.14-.21.21-.38-.08-.52a.43.43,0,0,0-.54.25.2.2,0,0,1,.15-.11c.12,0,.06.05.07.13s-.09.26-.12.41-.06.73.25.73c-.07-.08-.24-.25-.11-.36,0,.06,0,.06.07.08s0-.34.15-.36a3.36,3.36,0,0,0,.24.34.67.67,0,0,0,.26.3,1.14,1.14,0,0,0,.84.09,1.81,1.81,0,0,0,.86-.5,3.25,3.25,0,0,0,.43-.45,2.77,2.77,0,0,0,.19-.43,2.31,2.31,0,0,1-1.29,1.64,1.6,1.6,0,0,1-1.35.08c-.81-.23-1.52-1.3-.88-2.06a.77.77,0,0,1,.61-.26,5.85,5.85,0,0,1,.65.13Z"/><path class="cls-1" d="M56.27,2.9c.24.31.88.4.88.88A.39.39,0,0,1,57,3.71a.81.81,0,0,1-.29,1.11c0-.15-.09-.15-.16-.25a.64.64,0,0,1-.08-.35,1,1,0,0,0-.06.26c0-.08-.14-.15-.2-.24a1,1,0,0,1-.07-.39c0-.2-.1-.75-.37-.77,0,.18.41.43.22.64a.37.37,0,0,0,0-.08.61.61,0,0,1-.16.42c0-.13-.13-.15-.22-.21a.56.56,0,0,1-.23-.3A1,1,0,0,0,55,2.94a2.06,2.06,0,0,0-1.19-.32,3.47,3.47,0,0,1,.84-.06,5,5,0,0,0,.82.08Z"/><path class="cls-1" d="M71.74,7.83a3,3,0,0,0,.78-.52c.13-.12.45-.57.26-.73a1,1,0,0,0-.09.14.64.64,0,0,0-.26-.8.46.46,0,0,0-.43,0c-.11.05-.27.22-.13.33.07-.18.18-.1.26,0s0,.19,0,.36a.15.15,0,0,0-.09-.16,3.71,3.71,0,0,1-.23.67c-.09.19-.31.58-.56.55.12-.16.69-.5.36-.77l-.08.16c0-.16,0-.49-.19-.53a1.93,1.93,0,0,1-.5,1A.41.41,0,0,0,71,7.4a2.38,2.38,0,0,0-.41.29,1.53,1.53,0,0,1-.52.19,8.23,8.23,0,0,1-1.1.1c.08.12.48.14.62.16a4.86,4.86,0,0,0,1.19-.08Z"/><path class="cls-1" d="M76.73,7.94A2.07,2.07,0,0,0,78,7.26a1.2,1.2,0,0,0,.09-1.41A.85.85,0,0,0,77,5.69c-.15.11-.4.74,0,.65,0-.07,0-.12,0-.19.22-.06.19.24.15.36A2,2,0,0,0,77,7a.23.23,0,0,1-.09-.21c-.19.09-.16.34-.22.5a1.17,1.17,0,0,1-.51.6.71.71,0,0,0,.31-.47.16.16,0,0,0-.13.12A.53.53,0,0,0,76.21,7c0,.11-.19.39-.25.49a.87.87,0,0,1-.52.36,3.71,3.71,0,0,1-1.25,0,1.87,1.87,0,0,0,1.12.41,2.39,2.39,0,0,0,1,0Z"/><path class="cls-1" d="M79.8,6.58a3.7,3.7,0,0,1,2.55-.49c0,.05-.14.06-.21.11.24-.1.67.13.88.26a1.18,1.18,0,0,1,.54.73c-.25,0-.46.16-.71.19A2.16,2.16,0,0,1,82,7.21c.07.06.19.09.25.17-.15,0-.28.13-.43.16a1.56,1.56,0,0,1-.58,0C81,7.45,80,7,79.93,7.18c.11,0,.31,0,.34.17-.14,0-.14.07-.26.11a1,1,0,0,1-.3,0c-.22,0-.42-.07-.65-.07a3.09,3.09,0,0,0-1.17.32c.21-.43.92-.63,1.32-.82Z"/><path class="cls-1" d="M87.93,10.08c.29.1.81.37.88.69l-.14,0a1,1,0,0,1,.1,1.22.75.75,0,0,1-.69.29c-.1,0-.33-.19-.16-.28,0,.13.19.11.22,0s-.11-.2-.2-.25a.47.47,0,0,1-.16-.59c0,.06-.06.16-.1.22-.31-.28,0-.88-.34-1.12,0,.05,0,.12,0,.17s-.22-.23-.36-.29a1.3,1.3,0,0,0-.43-.08A.8.8,0,0,1,87,9.86Z"/><path class="cls-1" d="M89.64,11.52a3.15,3.15,0,0,1,.26.73c0,.18.07.67-.15.73a.57.57,0,0,1,0-.14c0,.35-.52.64-.84.53.13-.12,0-.45.18-.62a.16.16,0,0,0-.14.16c0-.41.25-.71.28-1.12a1.78,1.78,0,0,0-.07-.54,2.12,2.12,0,0,1-.15-.47c.16,0,.19.07.26.19Z"/><path class="cls-1" d="M87.69,13.17c.16.07.35.08.47.22a.47.47,0,0,1,0,.57c-.29.39-.76.13-.68-.3-.27-.05-.28.53-.23.69a.13.13,0,0,1,.14-.1c-.14.35.24.67.54.74-.24.27-.91-.32-1-.54a.76.76,0,0,1,.44-1.08Z"/><path class="cls-1" d="M89.74,16.93c.07.3,0,.76.43.86,0-.05,0-.07,0-.13a1.51,1.51,0,0,0,1.36.15c-.15-.1-.08-.17-.15-.32a1.07,1.07,0,0,0-.33-.32c-.19-.14-.67-.18-.71-.45a.67.67,0,0,0,.32.21c.06-.54-.53-.92-.6-1.45a5.39,5.39,0,0,1,0-.71c0-.29.08-.55.06-.84-.15.08-.16.36-.18.52a4.93,4.93,0,0,1-.08.76Z"/><path class="cls-1" d="M92.21,19.84a4.08,4.08,0,0,0,.8.45c.19.08.73.26.75.5a.32.32,0,0,0-.14-.06c.3.1.46.62.45.9s-.3.85-.75.81c.14-.09.07-.2,0-.3a.68.68,0,0,1-.15-.41.4.4,0,0,0-.07.21,1.11,1.11,0,0,1-.25-.21,1.27,1.27,0,0,1-.11-.5c0-.22-.09-.8-.37-.86,0,.23.45.56.15.84a1.13,1.13,0,0,0-.07-.13.48.48,0,0,1-.24.41c-.1.05-.45.08-.39-.11,0,0,.09,0,.12,0a.54.54,0,0,0-.08-.41.92.92,0,0,1-.18-.49.35.35,0,0,0-.06.27c-.24-.25-.15-.54-.24-.84a1.36,1.36,0,0,0-.51-.74,3.41,3.41,0,0,1,.58.2Z"/><path class="cls-1" d="M94.22,20.64c.21,0,.87.22.93-.13a.38.38,0,0,0-.14,0c.54.08.76-.88.67-1.24a.71.71,0,0,0-.56-.6c-.18,0-.38.06-.37.28.17-.08.24.07.21.22s-.18.27-.22.43c.07-.14,0-.22-.11-.18s-.2.17-.28.21a2.12,2.12,0,0,1-.93.22,7.48,7.48,0,0,1-1.53-.26c.18.28.67.25.91.49Z"/><path class="cls-1" d="M45,7.38c-.29.29.12.76.4.87A1.85,1.85,0,0,0,46.82,8a2.38,2.38,0,0,0,1-2.11c.05-1.75-1.63-3-3.16-3.42a8,8,0,0,0-5.08.35,33.11,33.11,0,0,0-4.79,2.62,27.1,27.1,0,0,1-4.14,2.16,7.1,7.1,0,0,1-4.36.47A3.06,3.06,0,0,1,23.9,5.34a2.18,2.18,0,0,1,2-2.31c1.05-.14,2.41.75,2,2-.24.78-1.63,1.09-1.84.14,0-.16.21-.23.25-.07.12.52.76.47,1.1.2.54-.43.21-1.21-.2-1.59a1.91,1.91,0,0,0-3,1,2.56,2.56,0,0,0,.39,2.06,3,3,0,0,0,1.88,1.19,7.52,7.52,0,0,0,4.65-.77c3.1-1.35,5.74-3.68,9-4.77a8.1,8.1,0,0,1,4.77-.06,4.33,4.33,0,0,1,3.11,3,2.75,2.75,0,0,1-1.26,3,1.73,1.73,0,0,1-1.67,0c-.32-.28-.59-.79-.23-1.14.12-.12.3.07.18.18Z"/><path class="cls-1" d="M46.88,3.77a6.14,6.14,0,0,0-4-1.11c-1.24.08-2.69.8-2.82,2.17a2.27,2.27,0,0,0,2.36,2.58,1.43,1.43,0,0,0,1.24-1.34,1,1,0,0,0-.76-.83.61.61,0,0,0-.68.61c0,.17-.25.17-.26,0A.88.88,0,0,1,43,5a1.21,1.21,0,0,1,.94,1.29,1.7,1.7,0,0,1-1.06,1.27,2.1,2.1,0,0,1-1.71-.14A2.67,2.67,0,0,1,40,4.14,3.44,3.44,0,0,1,43,2.39a6.3,6.3,0,0,1,4,1.15c.13.1,0,.33-.13.22Z"/><path class="cls-1" d="M23.22,6.58a.58.58,0,0,1,.91-.51A.92.92,0,0,1,24.3,7.4a3.38,3.38,0,0,1-3.46.78,3.7,3.7,0,0,1-2.62-2.74,2,2,0,0,1,.39-1.82,2.42,2.42,0,0,1,1.88-.78,1.82,1.82,0,0,1,1.37.64,1.2,1.2,0,0,1,.25,1.27,1.09,1.09,0,0,1-1.2.59.59.59,0,0,1-.46-.85c.07-.15.29,0,.22.13-.18.42.39.52.68.46a.8.8,0,0,0,.57-.95,1.51,1.51,0,0,0-1.6-1A2,2,0,0,0,18.5,4.32a2.61,2.61,0,0,0,.36,2,3.66,3.66,0,0,0,3.44,1.7A2.91,2.91,0,0,0,24,7.37a.72.72,0,0,0,.2-.85c-.15-.34-.76-.43-.71.05,0,.17-.24.16-.26,0Z"/><path class="cls-1" d="M20.17,8a9.06,9.06,0,0,0-4.42-1.93,5,5,0,0,0-3.49.87c-1,.78-1.36,2.46-.33,3.34a1.76,1.76,0,0,0,1.76.21.9.9,0,0,0,.37-.92.63.63,0,0,0-1-.35c-.13.1-.31-.08-.18-.18a.89.89,0,0,1,1.37.29,1.11,1.11,0,0,1-.48,1.42,2.09,2.09,0,0,1-1.68-.06,1.84,1.84,0,0,1-1-1.35,2.88,2.88,0,0,1,1.72-3.06,6.12,6.12,0,0,1,4-.29A10.76,10.76,0,0,1,20.3,7.76c.14.09,0,.32-.13.22Z"/><path class="cls-1" d="M20.55,8.1a3.28,3.28,0,0,0-2.83.38.79.79,0,0,0,0,1.18.53.53,0,0,0,.67,0c.14-.11.13-.45-.11-.31a.13.13,0,0,1-.13-.22c.46-.26.78.33.46.68-.49.53-1.21.05-1.38-.51s.4-1.19,1-1.42a4.05,4.05,0,0,1,2.44-.07.13.13,0,0,1-.07.25Z"/><path class="cls-1" d="M11.09,11c.46.21.61-.36.42-.67a.88.88,0,0,0-.61-.31,2.25,2.25,0,0,0-1.57.33,3.11,3.11,0,0,0-1.5,3.17,1.92,1.92,0,0,0,1,1.3,1.52,1.52,0,0,0,1.62-.21c.52-.51-.15-1.67-.73-.94-.1.13-.29-.05-.18-.18.59-.75,1.48,0,1.35.78a1.18,1.18,0,0,1-1,.9,1.89,1.89,0,0,1-1.72-.52c-1-1-.71-2.7.11-3.72a3.27,3.27,0,0,1,1.77-1.16,1.87,1.87,0,0,1,1.53.26c.56.5.16,1.56-.63,1.19-.15-.07,0-.29.13-.22Z"/><path class="cls-1" d="M7.78,13.28a27.71,27.71,0,0,1,.38,2.86,3.06,3.06,0,0,1-.37,2,2.39,2.39,0,0,1-2.87.82,2,2,0,0,1-1-2.73c.57-.89,2.51-.91,2.44.41,0,.63-1.06.93-1.23.23,0-.16.21-.23.25-.07.08.34.44.23.62,0s0-.69-.21-.85a1.35,1.35,0,0,0-1.55.25c-.84.84,0,2.2.91,2.53a2.13,2.13,0,0,0,2.53-.95,3.34,3.34,0,0,0,.2-1.9c-.06-.86-.22-1.71-.36-2.55,0-.16.22-.23.25-.07Z"/><path class="cls-1" d="M8,17.73c-.13,1-1.1,1.51-1.87,1.9-1,.49-2,.88-2.91,1.42S.92,22.63,1.35,24a1.44,1.44,0,0,0,1.36,1,1,1,0,0,0,.77-.36c.21-.29,0-1-.37-.56-.11.13-.29-.06-.18-.18.37-.44.88,0,.92.43s-.65.9-1.14.94a1.63,1.63,0,0,1-1.46-.89,2,2,0,0,1,0-1.86A4,4,0,0,1,2.77,21a20.63,20.63,0,0,1,2-1c.56-.28,1.14-.51,1.68-.82a2.44,2.44,0,0,0,1.3-1.38s0-.09,0-.13.27-.09.25.07Z"/><path class="cls-1" d="M47.6,7a1.45,1.45,0,0,0-.49-1.74,1,1,0,0,0-1.45.32.75.75,0,0,0,.49,1.13c.48.06.78-.72.21-.65-.17,0-.16-.24,0-.26.66-.09.72.68.29,1a.84.84,0,0,1-.91,0A1,1,0,0,1,45.31,6a1.19,1.19,0,0,1,1.53-1.17,1.61,1.61,0,0,1,1,.77,2,2,0,0,1,0,1.44c0,.16-.29.09-.25-.07Z"/><path class="cls-1" d="M35.66,4.95c-1,.62-3.55,1.55-4.22,0a1.42,1.42,0,0,1,.1-1.34,1,1,0,0,1,1.29-.38c.35.16.69.52.46.92a.58.58,0,0,1-.86.24c-.13-.1,0-.32.13-.22.3.23.65-.16.48-.46a.8.8,0,0,0-.64-.31.79.79,0,0,0-.64.35,1.13,1.13,0,0,0,.52,1.68A3,3,0,0,0,34,5.35a5.75,5.75,0,0,0,1.49-.62.13.13,0,0,1,.13.22Z"/><path class="cls-1" d="M46.86,3.75c-.48-.41-1.05-1-.93-1.74A1.17,1.17,0,0,1,47.1,1c.45,0,.93.37.79.86a.52.52,0,0,1-1,.13c-.07-.15.15-.28.22-.13.17.38.69-.08.41-.42a.8.8,0,0,0-.92-.08,1,1,0,0,0-.41,1.15A2.43,2.43,0,0,0,47,3.57c.13.11-.06.29-.18.18Z"/><path class="cls-1" d="M35.39,5.15c-.5.34-1,1.11-.64,1.71a.92.92,0,0,0,1,.35.47.47,0,0,0,.35-.45c0-.17-.28-.38-.32-.12s-.28.09-.25-.07c.09-.46.69-.36.8,0,.17.58-.43,1-1,.89a1.07,1.07,0,0,1-1-1.08,1.94,1.94,0,0,1,.89-1.48c.14-.09.27.13.13.22Z"/><path class="cls-1" d="M11.11,11.26a.51.51,0,0,1-.45-.52.35.35,0,0,1,.49-.34c.16.06.09.31-.07.25s-.16,0-.16.11a.24.24,0,0,0,.19.24c.16,0,.17.28,0,.26Z"/><path class="cls-1" d="M26,5a.56.56,0,0,1,.45-.61c.31-.08.54.05.55.38,0,.17-.25.17-.26,0s-.16-.16-.31-.11-.18.19-.18.34A.13.13,0,0,1,26,5Z"/><path class="cls-1" d="M20.48,4.43a.42.42,0,0,1,.44-.19.31.31,0,0,1,.25.39c0,.16-.28.09-.25-.07,0,0,0,0,0,0s0,0,0,0l-.06,0a.16.16,0,0,0-.15.07c-.08.15-.3,0-.22-.13Z"/><path class="cls-1" d="M48,5.28a2.31,2.31,0,0,0-.28-1c-.14-.3-.38-.55-.52-.86-.22-.5,0-1.31.71-1.19a.53.53,0,0,1,.41.38s0,.28-.09.21.12-.17,0-.21c-.37-.1,0,.88,0,1a2.06,2.06,0,0,0-.06.52c.1-.11,0-.33.19-.41a.75.75,0,0,1,0,.1.62.62,0,0,1,.56-.16c-.06.17,0,.41-.17.53a.27.27,0,0,0,.15-.14.86.86,0,0,1-.24.77c-.14.19-.4.43-.38.69.19-.1.1-.37.38-.45a.58.58,0,0,1,0,.15c.21-.28.69.19.45.24a.27.27,0,0,0,0-.06.25.25,0,0,0-.12,0c0,.13-.14.21-.17.36a.85.85,0,0,1-.11.36.47.47,0,0,1,.14-.06c0,.3-.31.5-.52.67a1.22,1.22,0,0,0-.3.35.81.81,0,0,1-.24.27c0-.18.14-.35.17-.53a5.23,5.23,0,0,0,0-.91,3.69,3.69,0,0,0-.19-1.14Z"/><path class="cls-1" d="M46.15,3.25A2.07,2.07,0,0,0,45.59,3a3.07,3.07,0,0,0-.71-.23c-.26,0-.9-.1-1,.21A.23.23,0,0,1,44,3c-.26,0-.48.35-.58.57s-.16.4-.09.52.1,0,.22,0a1.58,1.58,0,0,0,.66,0,2.63,2.63,0,0,1,.59-.21c-.06.05-.14.1-.15.19.15,0,.29,0,.43.05A1.18,1.18,0,0,0,45.69,4c.18-.07.81-.33,1-.13-.12,0-.39,0-.44.12.1,0,.29.13.41.16a1.31,1.31,0,0,1,.46.17,2.15,2.15,0,0,1,.67.78A1.92,1.92,0,0,0,47.19,4a7.78,7.78,0,0,0-.89-.78Z"/><path class="cls-1" d="M38.17,3.4c-.37.15-1.12.6-1,1.08a.18.18,0,0,1,.15-.1,1.29,1.29,0,0,0,.26,1.5c0-.18.24-.22.34-.34s.09-.35.17-.5a.24.24,0,0,1,0,.17c.53.06.15-1.6.64-1.57-.07.18-.3.49-.13.69.09-.12.22-.12.27-.29a.38.38,0,0,0,0,.1l.08,0c.32-.2.29-.67.55-.94a6.51,6.51,0,0,1,.84-.69,1.29,1.29,0,0,0-.53.13,4,4,0,0,0-.59.24Z"/><path class="cls-1" d="M31.41,7.12c-.35.24-2.71.79-2.76.22l.19-.07c-.16,0-.41-.25-.49-.37a1.27,1.27,0,0,1-.17-.9.68.68,0,0,1,.58-.54c.17,0,.46.06.44.28-.16-.19-.26.11-.25.24s.16.35.25.52c0-.09-.07-.18,0-.25a1.47,1.47,0,0,0,.64.51c.19.09.74.33.91.16-.08-.08-.3,0-.41-.09A.54.54,0,0,1,30,6.43c.08,0,.13.08.21.11-.16-.21-.27-.9.13-.93,0,.11.19.16.27.23a1.77,1.77,0,0,0,.47.43A.38.38,0,0,1,31,6a2.93,2.93,0,0,1,.56.17,2.63,2.63,0,0,0,.74.08,2.42,2.42,0,0,0,.57,0c.14,0,.34-.14.48-.11-.12.23-.49.34-.69.49Z"/><path class="cls-1" d="M45.39,8.3c.23.18,1.36,0,1.31-.37l-.06,0c.07-.15.2-.74-.11-.75a.72.72,0,0,1-.37.58c.05,0,.11-.12.06-.19-.08.1-.13.21-.3.27a1,1,0,0,1-.52,0A.44.44,0,0,1,45,7.61c0-.09,0-.33-.13-.32,0,.18-.17.42,0,.58Z"/><path class="cls-1" d="M42.08,5.52c-.42.34.31,1,.59.57.14-.21-.22-.38.08-.52a.43.43,0,0,1,.54.25.21.21,0,0,0-.15-.11c-.12,0-.06.05-.06.13s.09.26.13.41S43.26,7,43,7c.07-.08.24-.25.11-.36,0,.06,0,.06-.07.08s0-.34-.15-.36-.17.22-.24.34a.68.68,0,0,1-.26.3,1.14,1.14,0,0,1-.84.09,1.81,1.81,0,0,1-.86-.5,3.19,3.19,0,0,1-.43-.45A2.68,2.68,0,0,1,40,5.7,2.31,2.31,0,0,0,41.3,7.34a1.6,1.6,0,0,0,1.35.08c.81-.23,1.52-1.3.88-2.06a.78.78,0,0,0-.61-.26,5.88,5.88,0,0,0-.65.13Z"/><path class="cls-1" d="M41.46,2.9c-.24.31-.88.4-.88.88a.41.41,0,0,0,.12-.08A.81.81,0,0,0,41,4.82c0-.15.09-.15.16-.25a.66.66,0,0,0,.09-.35,1,1,0,0,1,.06.26c0-.08.14-.15.2-.24a1,1,0,0,0,.08-.39c0-.2.1-.75.37-.77,0,.18-.41.43-.22.64a.37.37,0,0,1,0-.08.61.61,0,0,0,.16.42c0-.13.13-.15.21-.21a.55.55,0,0,0,.23-.3,1.05,1.05,0,0,1,.37-.61,2.06,2.06,0,0,1,1.19-.32,3.47,3.47,0,0,0-.84-.06,5,5,0,0,1-.82.08Z"/><path class="cls-1" d="M26,7.83a3,3,0,0,1-.78-.52c-.13-.12-.45-.57-.26-.73a1,1,0,0,1,.09.14.64.64,0,0,1,.26-.8.46.46,0,0,1,.43,0c.11.05.27.22.13.33-.07-.18-.18-.1-.26,0s0,.19,0,.36a.15.15,0,0,1,.09-.16,3.79,3.79,0,0,0,.23.67c.09.19.31.58.56.55-.12-.16-.69-.5-.37-.77l.08.16c0-.16,0-.49.2-.53a1.92,1.92,0,0,0,.5,1,.4.4,0,0,1-.11-.16,2.42,2.42,0,0,1,.41.29,1.53,1.53,0,0,0,.52.19,8.23,8.23,0,0,0,1.1.1c-.08.12-.48.14-.62.16A4.86,4.86,0,0,1,27,8.07Z"/><path class="cls-1" d="M21,7.94a2.07,2.07,0,0,1-1.29-.67,1.2,1.2,0,0,1-.09-1.41.85.85,0,0,1,1.14-.17c.15.11.4.74,0,.65,0-.07,0-.12,0-.19-.22-.06-.19.24-.15.36a2,2,0,0,1,.12.53.23.23,0,0,0,.09-.21c.18.09.16.34.22.5a1.17,1.17,0,0,0,.51.6.71.71,0,0,1-.31-.47.16.16,0,0,1,.13.12A.53.53,0,0,1,21.51,7c0,.11.19.39.25.49a.87.87,0,0,0,.52.36,3.71,3.71,0,0,0,1.25,0,1.87,1.87,0,0,1-1.12.41,2.39,2.39,0,0,1-1,0Z"/><path class="cls-1" d="M17.92,6.58a3.7,3.7,0,0,0-2.55-.49c0,.05.14.06.21.11-.24-.1-.67.13-.87.26a1.18,1.18,0,0,0-.54.73c.25,0,.46.16.71.19a2.16,2.16,0,0,0,.89-.16c-.07.06-.19.09-.25.17.15,0,.28.13.43.16a1.56,1.56,0,0,0,.58,0c.16,0,1.23-.53,1.27-.31-.11,0-.31,0-.34.17.15,0,.14.07.26.11a1,1,0,0,0,.3,0c.22,0,.42-.07.65-.07a3.09,3.09,0,0,1,1.17.32c-.21-.43-.92-.63-1.32-.82Z"/><path class="cls-1" d="M9.8,10.08c-.29.1-.81.37-.88.69l.14,0A1,1,0,0,0,9,12a.75.75,0,0,0,.69.29c.1,0,.33-.19.16-.28,0,.13-.18.11-.22,0s.11-.2.2-.25a.47.47,0,0,0,.16-.59c0,.06.06.16.1.22.31-.28,0-.88.34-1.12,0,.05,0,.12,0,.17s.22-.23.36-.29a1.3,1.3,0,0,1,.43-.08.81.81,0,0,0-.5-.15Z"/><path class="cls-1" d="M8.09,11.52a3.2,3.2,0,0,0-.26.73c0,.18-.07.67.15.73a.55.55,0,0,0,0-.14c0,.35.52.64.84.53-.13-.12,0-.45-.18-.62a.16.16,0,0,1,.14.16c0-.41-.25-.71-.28-1.12a1.75,1.75,0,0,1,.07-.54,2.12,2.12,0,0,0,.15-.47c-.16,0-.19.07-.26.19Z"/><path class="cls-1" d="M10,13.17c-.16.07-.35.08-.47.22a.47.47,0,0,0,0,.57c.29.39.76.13.68-.3.27-.05.28.53.23.69a.13.13,0,0,0-.14-.1c.14.35-.24.67-.54.74.25.27.91-.32,1-.54a.76.76,0,0,0-.44-1.08Z"/><path class="cls-1" d="M8,16.93c-.07.3,0,.76-.42.86,0-.05,0-.07,0-.13a1.51,1.51,0,0,1-1.36.15c.15-.1.08-.17.15-.32a1.08,1.08,0,0,1,.33-.32c.19-.14.67-.18.71-.45a.66.66,0,0,1-.32.21c-.06-.54.53-.92.6-1.45a5.31,5.31,0,0,0,0-.71c0-.29-.08-.55-.06-.84.15.08.16.36.18.52a5.33,5.33,0,0,0,.08.76Z"/><path class="cls-1" d="M5.52,19.84a4.14,4.14,0,0,1-.8.45c-.19.08-.73.26-.75.5a.32.32,0,0,1,.14-.06c-.3.1-.45.62-.45.9s.3.85.75.81c-.14-.09-.07-.2,0-.3a.69.69,0,0,0,.15-.41.42.42,0,0,1,.06.21,1.12,1.12,0,0,0,.25-.21,1.27,1.27,0,0,0,.11-.5c0-.22.09-.8.36-.86,0,.23-.45.56-.15.84a1.12,1.12,0,0,1,.07-.13.48.48,0,0,0,.24.41c.1.05.45.08.39-.11,0,0-.09,0-.12,0A.54.54,0,0,1,5.84,21,.93.93,0,0,0,6,20.47a.35.35,0,0,1,.06.27c.24-.25.15-.54.24-.84a1.37,1.37,0,0,1,.51-.74,3.35,3.35,0,0,0-.58.2Z"/><path class="cls-1" d="M3.51,20.64c-.21,0-.87.22-.93-.13a.38.38,0,0,1,.14,0c-.54.08-.76-.88-.67-1.24a.71.71,0,0,1,.56-.6c.18,0,.38.06.37.28-.17-.08-.24.07-.21.22s.18.27.22.43c-.07-.14,0-.22.11-.18s.2.17.28.21a2.13,2.13,0,0,0,.93.22,7.5,7.5,0,0,0,1.53-.26c-.18.28-.66.25-.91.49Z"/><path class="cls-1" d="M45,43c-.29-.29.12-.76.4-.87a1.84,1.84,0,0,1,1.39.2,2.39,2.39,0,0,1,1,2.11c.05,1.76-1.63,3-3.16,3.42a8,8,0,0,1-5.08-.35,33,33,0,0,1-4.79-2.62,27.18,27.18,0,0,0-4.14-2.16,7.09,7.09,0,0,0-4.36-.47A3.06,3.06,0,0,0,23.9,45a2.18,2.18,0,0,0,2,2.3c1.05.14,2.41-.75,2-2-.24-.78-1.63-1.08-1.84-.14,0,.16.21.23.25.07.12-.52.76-.47,1.1-.2.54.43.21,1.2-.2,1.59a1.91,1.91,0,0,1-3-1,2.56,2.56,0,0,1,.39-2.06,3,3,0,0,1,1.88-1.19,7.52,7.52,0,0,1,4.65.77c3.1,1.35,5.74,3.68,9,4.77a8.1,8.1,0,0,0,4.77.06A4.33,4.33,0,0,0,48,45a2.75,2.75,0,0,0-1.26-3,1.73,1.73,0,0,0-1.67,0c-.32.28-.59.79-.23,1.14.12.12.3-.07.18-.18Z"/><path class="cls-1" d="M46.88,46.61a6.14,6.14,0,0,1-4,1.11c-1.24-.08-2.69-.81-2.82-2.17A2.27,2.27,0,0,1,42.41,43a1.43,1.43,0,0,1,1.24,1.34,1,1,0,0,1-.76.83.61.61,0,0,1-.68-.61c0-.17-.25-.17-.26,0a.88.88,0,0,0,1,.87,1.21,1.21,0,0,0,.94-1.3,1.7,1.7,0,0,0-1.06-1.27,2.1,2.1,0,0,0-1.71.14A2.68,2.68,0,0,0,40,46.24,3.44,3.44,0,0,0,43,48a6.3,6.3,0,0,0,4-1.15c.13-.1,0-.33-.13-.22Z"/><path class="cls-1" d="M23.22,43.8a.58.58,0,0,0,.91.51A.92.92,0,0,0,24.3,43a3.38,3.38,0,0,0-3.46-.78,3.7,3.7,0,0,0-2.62,2.74,2,2,0,0,0,.39,1.82,2.42,2.42,0,0,0,1.88.77,1.81,1.81,0,0,0,1.37-.64,1.2,1.2,0,0,0,.25-1.27,1.09,1.09,0,0,0-1.2-.59.59.59,0,0,0-.46.85c.06.15.29,0,.22-.13-.18-.42.39-.52.68-.46a.8.8,0,0,1,.57.95,1.52,1.52,0,0,1-1.6,1,2,2,0,0,1-1.82-1.21,2.6,2.6,0,0,1,.36-2,3.66,3.66,0,0,1,3.44-1.7A2.91,2.91,0,0,1,24,43a.72.72,0,0,1,.2.85c-.15.34-.76.43-.71-.05,0-.17-.24-.16-.26,0Z"/><path class="cls-1" d="M20.17,42.39a9.05,9.05,0,0,1-4.42,1.93,5,5,0,0,1-3.49-.87c-1-.78-1.36-2.46-.33-3.34a1.76,1.76,0,0,1,1.76-.2.9.9,0,0,1,.37.92.64.64,0,0,1-1,.35c-.13-.1-.31.08-.18.18a.89.89,0,0,0,1.37-.29,1.11,1.11,0,0,0-.48-1.42,2.09,2.09,0,0,0-1.68.06,1.84,1.84,0,0,0-1,1.35,2.88,2.88,0,0,0,1.72,3.06,6.12,6.12,0,0,0,4,.29,10.76,10.76,0,0,0,3.46-1.79c.14-.1,0-.32-.13-.22Z"/><path class="cls-1" d="M20.55,42.27a3.28,3.28,0,0,1-2.83-.38.79.79,0,0,1,0-1.18.53.53,0,0,1,.67,0c.14.11.13.44-.11.31s-.28.14-.13.22c.46.26.78-.33.46-.68-.49-.53-1.21-.06-1.38.51s.4,1.18,1,1.42a4.05,4.05,0,0,0,2.44.07.13.13,0,0,0-.07-.25Z"/><path class="cls-1" d="M11.09,39.37c.46-.21.61.36.42.67a.88.88,0,0,1-.61.31A2.24,2.24,0,0,1,9.34,40a3.11,3.11,0,0,1-1.5-3.17,1.92,1.92,0,0,1,1-1.3,1.51,1.51,0,0,1,1.62.21c.52.51-.15,1.67-.73.94-.1-.13-.29.05-.18.18.59.75,1.48,0,1.35-.78a1.18,1.18,0,0,0-1-.91,1.89,1.89,0,0,0-1.72.52c-1,1-.71,2.7.11,3.72a3.27,3.27,0,0,0,1.77,1.16,1.87,1.87,0,0,0,1.53-.26c.55-.5.16-1.56-.63-1.19-.15.07,0,.29.13.22Z"/><path class="cls-1" d="M7.78,37.09a27.7,27.7,0,0,0,.38-2.85,3.06,3.06,0,0,0-.37-2,2.39,2.39,0,0,0-2.87-.83,2,2,0,0,0-1,2.73c.57.89,2.51.91,2.44-.41,0-.63-1.06-.93-1.23-.23a.13.13,0,0,0,.25.07c.08-.34.44-.23.62,0s0,.69-.21.85a1.35,1.35,0,0,1-1.55-.25c-.84-.84,0-2.2.91-2.54a2.13,2.13,0,0,1,2.53.95,3.34,3.34,0,0,1,.2,1.9c-.06.86-.22,1.71-.36,2.55,0,.16.22.23.25.07Z"/><path class="cls-1" d="M8,32.65c-.13-1-1.1-1.51-1.87-1.9-1-.49-2-.88-2.91-1.41S.92,27.74,1.35,26.39a1.44,1.44,0,0,1,1.36-1,1,1,0,0,1,.77.36c.21.29,0,1-.37.56-.11-.13-.29.06-.18.18.37.44.88,0,.92-.43s-.65-.9-1.14-.94A1.63,1.63,0,0,0,1.25,26a2,2,0,0,0,0,1.86,4,4,0,0,0,1.54,1.51,20.86,20.86,0,0,0,2,1c.56.28,1.14.51,1.68.82a2.44,2.44,0,0,1,1.3,1.38s0,.09,0,.13.27.09.25-.07Z"/><path class="cls-1" d="M47.6,43.38a1.45,1.45,0,0,1-.49,1.74,1,1,0,0,1-1.45-.32.75.75,0,0,1,.49-1.12c.48-.06.78.72.21.64-.17,0-.16.24,0,.26.66.09.72-.68.29-1a.84.84,0,0,0-.91,0,1,1,0,0,0-.44.81,1.19,1.19,0,0,0,1.53,1.17,1.61,1.61,0,0,0,1-.77,2,2,0,0,0,0-1.44c0-.16-.29-.09-.25.07Z"/><path class="cls-1" d="M35.66,45.43c-1-.62-3.55-1.55-4.22,0a1.42,1.42,0,0,0,.1,1.34,1,1,0,0,0,1.29.38c.35-.16.69-.52.46-.92a.58.58,0,0,0-.86-.24c-.13.1,0,.32.13.22.3-.23.65.16.48.46a.79.79,0,0,1-1.28,0A1.13,1.13,0,0,1,32.29,45,3,3,0,0,1,34,45a5.75,5.75,0,0,1,1.5.62.13.13,0,0,0,.13-.22Z"/><path class="cls-1" d="M46.86,46.63c-.48.41-1.05,1-.93,1.74a1.17,1.17,0,0,0,1.17,1c.45,0,.93-.37.79-.86a.52.52,0,0,0-1-.13c-.07.15.15.28.22.13.18-.38.69.08.41.42a.8.8,0,0,1-.92.08,1,1,0,0,1-.41-1.15A2.42,2.42,0,0,1,47,46.81c.13-.11-.06-.29-.18-.18Z"/><path class="cls-1" d="M35.39,45.22c-.5-.34-1-1.11-.64-1.71a.92.92,0,0,1,1-.35.47.47,0,0,1,.35.45c0,.17-.28.38-.32.13s-.28-.09-.25.07c.09.46.69.36.8,0,.17-.58-.43-1-1-.89a1.07,1.07,0,0,0-1,1.08,1.94,1.94,0,0,0,.89,1.48c.14.09.27-.13.13-.22Z"/><path class="cls-1" d="M11.11,39.11a.51.51,0,0,0-.45.52.35.35,0,0,0,.49.34c.16-.06.09-.31-.07-.25s-.16,0-.16-.11a.25.25,0,0,1,.19-.24c.16,0,.17-.28,0-.26Z"/><path class="cls-1" d="M26,45.36a.57.57,0,0,0,.45.61c.31.08.54-.05.55-.38,0-.17-.25-.17-.26,0s-.16.16-.31.11-.18-.2-.18-.34a.13.13,0,0,0-.26,0Z"/><path class="cls-1" d="M20.48,45.94a.43.43,0,0,0,.44.19.31.31,0,0,0,.25-.39c0-.16-.28-.09-.25.07,0,0,0,0,0,0s0,0,0,0l-.06,0a.16.16,0,0,1-.15-.07c-.08-.15-.3,0-.22.13Z"/><path class="cls-1" d="M48,45.1a2.31,2.31,0,0,1-.28,1c-.14.3-.38.55-.52.86-.22.5,0,1.31.71,1.19a.53.53,0,0,0,.41-.38s0-.28-.09-.21.12.17,0,.21c-.37.1,0-.88,0-1a2.06,2.06,0,0,1-.06-.52c.1.11,0,.33.19.41a.62.62,0,0,0,0-.1.62.62,0,0,0,.56.16c-.06-.17,0-.41-.17-.53a.27.27,0,0,1,.15.14.86.86,0,0,0-.24-.77c-.14-.19-.4-.44-.38-.69.19.1.1.37.38.45a.58.58,0,0,0,0-.15c.21.28.69-.19.45-.24A.27.27,0,0,1,49,45a.25.25,0,0,1-.12,0c0-.13-.14-.21-.17-.36a.85.85,0,0,0-.11-.36.45.45,0,0,0,.14.06c0-.3-.31-.5-.52-.67a1.22,1.22,0,0,1-.3-.34.8.8,0,0,0-.24-.27c0,.18.14.35.17.53a5.23,5.23,0,0,1,0,.91,3.68,3.68,0,0,1-.19,1.14Z"/><path class="cls-1" d="M46.15,47.13a2.09,2.09,0,0,1-.56.24,3.08,3.08,0,0,1-.71.23c-.26,0-.9.1-1-.21a.24.24,0,0,0,.15,0c-.26,0-.48-.35-.58-.57s-.16-.4-.09-.51.1,0,.22,0a1.56,1.56,0,0,1,.66,0,2.58,2.58,0,0,0,.59.21c-.06-.05-.14-.1-.15-.19.15,0,.29,0,.43-.05a1.19,1.19,0,0,1,.62.11c.18.07.81.33,1,.13-.12,0-.39,0-.44-.12.1,0,.29-.13.41-.16a1.29,1.29,0,0,0,.46-.17,2.14,2.14,0,0,0,.67-.78,1.93,1.93,0,0,1-.56,1.16,8,8,0,0,1-.89.78Z"/><path class="cls-1" d="M38.17,47c-.37-.15-1.12-.6-1-1.08a.18.18,0,0,0,.15.1,1.29,1.29,0,0,1,.26-1.5c0,.18.24.22.34.34s.09.35.17.5a.24.24,0,0,0,0-.17c.53-.06.15,1.6.64,1.57-.07-.18-.3-.49-.13-.69.09.12.22.12.27.29a.38.38,0,0,1,0-.1l.08,0c.32.2.29.67.55.94a6.5,6.5,0,0,0,.84.69,1.27,1.27,0,0,1-.53-.12,4,4,0,0,1-.59-.24Z"/><path class="cls-1" d="M31.41,43.26c-.35-.24-2.71-.79-2.76-.22l.19.07c-.16,0-.41.25-.49.37a1.27,1.27,0,0,0-.17.9.68.68,0,0,0,.58.54c.17,0,.46-.06.44-.28-.16.19-.26-.11-.25-.24s.16-.35.25-.52c0,.09-.07.18,0,.25.09-.21.45-.41.64-.51s.74-.33.91-.16c-.08.08-.3,0-.41.09a.54.54,0,0,0-.37.38c.08,0,.13-.08.21-.11-.16.21-.27.9.13.93,0-.11.19-.15.27-.23a1.75,1.75,0,0,1,.47-.43.38.38,0,0,0-.06.23,3,3,0,0,0,.56-.17,2.63,2.63,0,0,1,.74-.08,2.47,2.47,0,0,1,.57,0c.14,0,.34.14.48.11-.12-.23-.49-.34-.69-.49Z"/><path class="cls-1" d="M45.39,42.07c.23-.18,1.36,0,1.31.36l-.06,0c.07.15.2.74-.11.75a.72.72,0,0,0-.37-.58c.05,0,.11.12.06.19-.08-.1-.13-.21-.3-.27a1,1,0,0,0-.52,0,.44.44,0,0,0-.37.29c0,.09,0,.33-.13.32,0-.18-.17-.42,0-.58Z"/><path class="cls-1" d="M42.08,44.86c-.42-.34.31-1,.59-.57.14.21-.22.38.08.52a.43.43,0,0,0,.54-.25.2.2,0,0,1-.15.11c-.12,0-.06-.05-.06-.13s.09-.26.13-.41.06-.73-.25-.73c.07.08.24.25.11.36,0-.06,0-.06-.07-.08s0,.34-.15.36-.17-.22-.24-.34a.67.67,0,0,0-.26-.3,1.14,1.14,0,0,0-.84-.09,1.81,1.81,0,0,0-.86.5,3.13,3.13,0,0,0-.43.45,2.76,2.76,0,0,0-.19.43A2.31,2.31,0,0,1,41.3,43,1.6,1.6,0,0,1,42.65,43c.81.23,1.52,1.3.88,2.06a.78.78,0,0,1-.61.26,5.44,5.44,0,0,1-.65-.13Z"/><path class="cls-1" d="M41.46,47.47c-.24-.31-.88-.4-.88-.88a.39.39,0,0,1,.12.08A.81.81,0,0,1,41,45.55c0,.15.09.15.16.25a.66.66,0,0,1,.09.35,1.07,1.07,0,0,0,.06-.26c0,.08.14.15.2.24a1.05,1.05,0,0,1,.08.39c0,.2.1.75.37.77,0-.18-.41-.43-.22-.64a.35.35,0,0,0,0,.08.61.61,0,0,1,.16-.42c0,.13.13.15.21.21a.56.56,0,0,1,.23.3,1.05,1.05,0,0,0,.37.61,2.07,2.07,0,0,0,1.19.32,3.42,3.42,0,0,1-.84.06,5.13,5.13,0,0,0-.82-.08Z"/><path class="cls-1" d="M26,42.55a3,3,0,0,0-.78.52c-.13.12-.45.57-.26.73a1,1,0,0,0,.09-.14.64.64,0,0,0,.26.8.45.45,0,0,0,.43,0c.11-.05.27-.22.13-.33-.07.18-.18.1-.26,0s0-.19,0-.36a.15.15,0,0,0,.09.16,3.79,3.79,0,0,1,.23-.67c.09-.19.31-.58.56-.55-.12.16-.69.5-.37.76l.08-.16c0,.16,0,.49.2.53a1.93,1.93,0,0,1,.5-1,.41.41,0,0,0-.11.16,2.37,2.37,0,0,0,.41-.3,1.55,1.55,0,0,1,.52-.19,8.21,8.21,0,0,1,1.1-.1c-.08-.12-.48-.14-.62-.16a4.87,4.87,0,0,0-1.19.08Z"/><path class="cls-1" d="M21,42.44a2.06,2.06,0,0,0-1.29.67,1.2,1.2,0,0,0-.09,1.41.85.85,0,0,0,1.14.17c.15-.11.4-.74,0-.65,0,.07,0,.12,0,.19-.22.06-.19-.24-.15-.36a2,2,0,0,0,.12-.53.23.23,0,0,1,.09.21c.18-.09.16-.34.22-.5a1.18,1.18,0,0,1,.51-.6.72.72,0,0,0-.31.48.16.16,0,0,0,.13-.12.53.53,0,0,0,.15.63c0-.11.19-.39.25-.49a.87.87,0,0,1,.52-.36,3.71,3.71,0,0,1,1.25,0,1.87,1.87,0,0,0-1.12-.41,2.38,2.38,0,0,0-1,0Z"/><path class="cls-1" d="M17.92,43.8a3.7,3.7,0,0,1-2.55.49c0-.05.14-.06.21-.11-.24.1-.67-.13-.87-.26a1.18,1.18,0,0,1-.54-.73c.25,0,.46-.16.71-.19a2.16,2.16,0,0,1,.89.17c-.07-.07-.19-.09-.25-.17.15,0,.28-.13.43-.16a1.58,1.58,0,0,1,.58,0c.16,0,1.23.53,1.27.31-.11,0-.31,0-.34-.17.15,0,.14-.07.26-.11a1,1,0,0,1,.3,0c.22,0,.42.07.65.07a3.07,3.07,0,0,0,1.17-.32c-.21.43-.92.63-1.32.82Z"/><path class="cls-1" d="M9.8,40.3c-.29-.1-.81-.36-.88-.69l.14,0A1,1,0,0,1,9,38.42a.75.75,0,0,1,.69-.29c.1,0,.33.19.16.28,0-.13-.18-.11-.22,0s.11.2.2.25a.47.47,0,0,1,.16.59c0-.06.06-.16.1-.22.31.28,0,.88.34,1.13,0-.05,0-.12,0-.17s.22.23.36.29a1.27,1.27,0,0,0,.43.08.8.8,0,0,1-.5.15Z"/><path class="cls-1" d="M8.09,38.85a3.22,3.22,0,0,1-.26-.73c0-.18-.07-.67.15-.73a.55.55,0,0,1,0,.14c0-.35.52-.64.84-.53-.13.12,0,.45-.18.63a.16.16,0,0,0,.14-.16c0,.41-.25.71-.28,1.12a1.74,1.74,0,0,0,.07.54,2.15,2.15,0,0,1,.15.47c-.16,0-.19-.07-.26-.19Z"/><path class="cls-1" d="M10,37.21c-.16-.07-.35-.08-.47-.22a.47.47,0,0,1,0-.57c.29-.4.76-.13.68.3.27.05.28-.53.23-.69a.13.13,0,0,1-.14.1c.14-.35-.24-.67-.54-.74.25-.27.91.32,1,.54A.76.76,0,0,1,10.34,37Z"/><path class="cls-1" d="M8,33.45c-.07-.3,0-.76-.42-.86,0,.05,0,.07,0,.13a1.51,1.51,0,0,0-1.36-.14c.15.1.08.17.15.32a1.09,1.09,0,0,0,.33.32c.19.14.67.17.71.45a.66.66,0,0,0-.32-.21c-.06.54.53.92.6,1.45a5.31,5.31,0,0,1,0,.71c0,.29-.08.55-.06.84.15-.08.16-.36.18-.52a5.33,5.33,0,0,1,.08-.76Z"/><path class="cls-1" d="M5.52,30.53a4.14,4.14,0,0,0-.8-.45C4.52,30,4,29.82,4,29.58a.32.32,0,0,0,.14.06c-.3-.1-.45-.62-.45-.9s.3-.85.75-.81c-.14.09-.07.2,0,.3a.69.69,0,0,1,.15.41.41.41,0,0,0,.06-.21,1.12,1.12,0,0,1,.25.21,1.28,1.28,0,0,1,.11.5c0,.22.09.8.36.86,0-.23-.45-.56-.15-.84a1.09,1.09,0,0,0,.07.13.48.48,0,0,1,.24-.42c.1-.05.45-.08.39.11,0,0-.09,0-.12,0a.54.54,0,0,0,.08.41A.92.92,0,0,1,6,29.9a.35.35,0,0,0,.06-.27c.24.25.15.54.24.84a1.37,1.37,0,0,0,.51.74,3.27,3.27,0,0,1-.58-.2Z"/><path class="cls-1" d="M3.51,29.73c-.21,0-.87-.22-.93.13a.39.39,0,0,0,.14,0c-.54-.08-.76.88-.67,1.24a.71.71,0,0,0,.56.6c.18,0,.38-.06.37-.28-.17.08-.24-.07-.21-.22S2.95,31,3,30.8c-.07.14,0,.21.11.18s.2-.17.28-.21a2.12,2.12,0,0,1,.93-.22,7.46,7.46,0,0,1,1.53.26c-.18-.28-.67-.25-.91-.49Z"/><path class="cls-1" d="M52.69,43c.29-.29-.12-.76-.4-.87a1.84,1.84,0,0,0-1.39.2,2.38,2.38,0,0,0-1,2.11c-.05,1.76,1.63,3,3.16,3.42a8,8,0,0,0,5.08-.35A33,33,0,0,0,63,44.89a27.23,27.23,0,0,1,4.14-2.16,7.1,7.1,0,0,1,4.36-.47A3.06,3.06,0,0,1,73.82,45a2.18,2.18,0,0,1-2,2.3c-1.05.14-2.41-.75-2-2,.24-.78,1.63-1.08,1.84-.14,0,.16-.21.23-.25.07-.12-.52-.76-.47-1.1-.2-.54.43-.21,1.2.2,1.59a1.91,1.91,0,0,0,3-1,2.56,2.56,0,0,0-.39-2.06,3,3,0,0,0-1.88-1.19,7.52,7.52,0,0,0-4.65.77c-3.1,1.35-5.74,3.68-9,4.77a8.1,8.1,0,0,1-4.77.06,4.33,4.33,0,0,1-3.11-3A2.75,2.75,0,0,1,51,42a1.73,1.73,0,0,1,1.67,0c.32.28.59.79.23,1.14-.12.12-.3-.07-.18-.18Z"/><path class="cls-1" d="M50.84,46.61a6.14,6.14,0,0,0,4,1.11c1.24-.08,2.69-.81,2.82-2.17A2.27,2.27,0,0,0,55.31,43a1.43,1.43,0,0,0-1.24,1.34,1,1,0,0,0,.76.83.61.61,0,0,0,.68-.61c0-.17.25-.17.26,0a.88.88,0,0,1-1,.87,1.21,1.21,0,0,1-.94-1.3,1.7,1.7,0,0,1,1.06-1.27,2.1,2.1,0,0,1,1.71.14,2.67,2.67,0,0,1,1.18,3.29A3.44,3.44,0,0,1,54.68,48a6.3,6.3,0,0,1-4-1.15c-.13-.1,0-.33.13-.22Z"/><path class="cls-1" d="M74.51,43.8a.58.58,0,0,1-.91.51A.93.93,0,0,1,73.42,43a3.38,3.38,0,0,1,3.46-.78,3.7,3.7,0,0,1,2.62,2.74,2,2,0,0,1-.39,1.82,2.41,2.41,0,0,1-1.88.77,1.81,1.81,0,0,1-1.37-.64,1.2,1.2,0,0,1-.25-1.27,1.09,1.09,0,0,1,1.2-.59.59.59,0,0,1,.46.85c-.06.15-.29,0-.22-.13.18-.42-.39-.52-.68-.46a.8.8,0,0,0-.57.95,1.52,1.52,0,0,0,1.61,1,2,2,0,0,0,1.82-1.21,2.61,2.61,0,0,0-.36-2,3.66,3.66,0,0,0-3.44-1.7,2.92,2.92,0,0,0-1.69.69.72.72,0,0,0-.2.85c.15.34.76.43.71-.05,0-.17.24-.16.26,0Z"/><path class="cls-1" d="M77.56,42.39A9,9,0,0,0,82,44.33a5,5,0,0,0,3.49-.87c1-.78,1.36-2.46.33-3.34a1.76,1.76,0,0,0-1.76-.2.9.9,0,0,0-.37.92.64.64,0,0,0,1,.35c.13-.1.31.08.18.18a.89.89,0,0,1-1.37-.29A1.11,1.11,0,0,1,84,39.65a2.09,2.09,0,0,1,1.68.06,1.84,1.84,0,0,1,1,1.35,2.88,2.88,0,0,1-1.71,3.06,6.13,6.13,0,0,1-4,.29,10.8,10.8,0,0,1-3.46-1.79c-.13-.1,0-.32.13-.22Z"/><path class="cls-1" d="M77.18,42.27A3.28,3.28,0,0,0,80,41.89a.79.79,0,0,0,0-1.18.53.53,0,0,0-.67,0c-.13.11-.13.44.11.31a.13.13,0,0,1,.13.22c-.46.26-.78-.33-.46-.68.49-.53,1.21-.06,1.37.51s-.4,1.18-1,1.42a4,4,0,0,1-2.44.07.13.13,0,0,1,.07-.25Z"/><path class="cls-1" d="M86.63,39.37c-.46-.21-.61.36-.42.67a.88.88,0,0,0,.61.31A2.24,2.24,0,0,0,88.38,40a3.11,3.11,0,0,0,1.5-3.17,1.92,1.92,0,0,0-1-1.3,1.51,1.51,0,0,0-1.62.21c-.52.51.15,1.67.73.94.1-.13.29.05.18.18-.59.75-1.47,0-1.35-.78a1.18,1.18,0,0,1,1-.91,1.89,1.89,0,0,1,1.72.52c1,1,.71,2.7-.12,3.72a3.27,3.27,0,0,1-1.77,1.16,1.87,1.87,0,0,1-1.53-.26c-.55-.5-.16-1.56.63-1.19.15.07,0,.29-.13.22Z"/><path class="cls-1" d="M89.94,37.09a27.56,27.56,0,0,1-.38-2.85,3.06,3.06,0,0,1,.37-2,2.38,2.38,0,0,1,2.87-.83,2,2,0,0,1,1,2.73c-.57.89-2.51.91-2.44-.41,0-.63,1.05-.93,1.23-.23,0,.16-.21.23-.25.07-.08-.34-.44-.23-.62,0s0,.69.21.85a1.35,1.35,0,0,0,1.55-.25c.83-.84,0-2.2-.91-2.54a2.13,2.13,0,0,0-2.53.95,3.34,3.34,0,0,0-.21,1.9c.06.86.22,1.71.36,2.55,0,.16-.22.23-.25.07Z"/><path class="cls-1" d="M89.71,32.65c.13-1,1.1-1.51,1.87-1.9,1-.49,2-.88,2.91-1.41s2.31-1.59,1.88-2.94a1.44,1.44,0,0,0-1.36-1,1,1,0,0,0-.77.36c-.21.29,0,1,.37.56.11-.13.29.06.18.18-.37.44-.88,0-.91-.43s.65-.9,1.14-.94a1.63,1.63,0,0,1,1.46.89,2,2,0,0,1,0,1.86A4,4,0,0,1,95,29.35a20.57,20.57,0,0,1-2,1c-.56.28-1.14.51-1.68.82A2.44,2.44,0,0,0,90,32.58s0,.09,0,.13-.27.09-.25-.07Z"/><path class="cls-1" d="M50.12,43.38a1.45,1.45,0,0,0,.49,1.74,1,1,0,0,0,1.45-.32.75.75,0,0,0-.49-1.12c-.48-.06-.78.72-.21.64.16,0,.16.24,0,.26-.66.09-.72-.68-.29-1a.84.84,0,0,1,.91,0,1,1,0,0,1,.44.81,1.19,1.19,0,0,1-1.53,1.17,1.6,1.6,0,0,1-1-.77,2,2,0,0,1,0-1.44c0-.16.29-.09.25.07Z"/><path class="cls-1" d="M62.07,45.43c1-.62,3.55-1.55,4.22,0a1.42,1.42,0,0,1-.1,1.34,1,1,0,0,1-1.29.38c-.35-.16-.69-.52-.46-.92a.58.58,0,0,1,.86-.24c.13.1,0,.32-.13.22-.3-.23-.65.16-.48.46a.79.79,0,0,0,1.28,0A1.13,1.13,0,0,0,65.44,45a3,3,0,0,0-1.74.07,5.75,5.75,0,0,0-1.49.62.13.13,0,0,1-.13-.22Z"/><path class="cls-1" d="M50.87,46.63c.48.41,1.05,1,.93,1.74a1.17,1.17,0,0,1-1.17,1c-.45,0-.93-.37-.79-.86a.52.52,0,0,1,1-.13c.07.15-.15.28-.22.13-.18-.38-.69.08-.41.42a.8.8,0,0,0,.92.08,1,1,0,0,0,.41-1.15,2.41,2.41,0,0,0-.81-1.05c-.13-.11.06-.29.18-.18Z"/><path class="cls-1" d="M62.34,45.22c.5-.34,1-1.11.64-1.71a.91.91,0,0,0-1-.35.48.48,0,0,0-.35.45c0,.17.28.38.32.13s.28-.09.25.07c-.08.46-.69.36-.8,0-.17-.58.43-1,1-.89a1.07,1.07,0,0,1,1,1.08,1.93,1.93,0,0,1-.88,1.48c-.14.09-.27-.13-.13-.22Z"/><path class="cls-1" d="M86.61,39.11a.51.51,0,0,1,.45.52.35.35,0,0,1-.49.34c-.15-.06-.09-.31.07-.25s.16,0,.16-.11a.24.24,0,0,0-.19-.24c-.16,0-.17-.28,0-.26Z"/><path class="cls-1" d="M71.69,45.36a.57.57,0,0,1-.45.61c-.31.08-.54-.05-.55-.38,0-.17.25-.17.26,0s.16.16.31.11.18-.2.18-.34a.13.13,0,0,1,.26,0Z"/><path class="cls-1" d="M77.25,45.94a.43.43,0,0,1-.44.19.31.31,0,0,1-.25-.39c0-.16.28-.09.25.07a.23.23,0,0,0,0,0s0,0,0,0l.05,0a.16.16,0,0,0,.15-.07c.08-.15.3,0,.22.13Z"/><path class="cls-1" d="M49.76,45.1a2.31,2.31,0,0,0,.28,1c.14.3.38.55.52.86.22.5,0,1.31-.71,1.19a.53.53,0,0,1-.41-.38s0-.28.09-.21-.12.17,0,.21c.37.1,0-.88,0-1a2.11,2.11,0,0,0,.06-.52c-.1.11,0,.33-.19.41a.57.57,0,0,1,0-.1.62.62,0,0,1-.56.16c.06-.17,0-.41.17-.53a.27.27,0,0,0-.15.14.86.86,0,0,1,.24-.77c.14-.19.4-.44.38-.69-.19.1-.1.37-.38.45a.55.55,0,0,1,0-.15c-.21.28-.69-.19-.45-.24a.24.24,0,0,0,0,.06.25.25,0,0,0,.12,0c0-.13.14-.21.17-.36a.86.86,0,0,1,.11-.36.44.44,0,0,1-.14.06c0-.3.31-.5.52-.67a1.2,1.2,0,0,0,.3-.34A.8.8,0,0,1,50,43c0,.18-.14.35-.17.53a5.08,5.08,0,0,0,0,.91A3.68,3.68,0,0,0,50,45.59Z"/><path class="cls-1" d="M51.58,47.13a2.08,2.08,0,0,0,.56.24,3.08,3.08,0,0,0,.71.23c.26,0,.89.1,1-.21a.24.24,0,0,1-.15,0c.26,0,.47-.35.58-.57s.16-.4.09-.51-.1,0-.22,0a1.56,1.56,0,0,0-.66,0,2.59,2.59,0,0,1-.59.21c.06-.05.14-.1.14-.19s-.28,0-.43-.05a1.19,1.19,0,0,0-.62.11c-.18.07-.81.33-1,.13.12,0,.39,0,.44-.12-.1,0-.29-.13-.41-.16a1.29,1.29,0,0,1-.46-.17,2.13,2.13,0,0,1-.67-.78,1.93,1.93,0,0,0,.56,1.16,7.92,7.92,0,0,0,.89.78Z"/><path class="cls-1" d="M59.55,47c.37-.15,1.12-.6,1-1.08a.18.18,0,0,1-.15.1,1.29,1.29,0,0,0-.26-1.5c0,.18-.24.22-.35.34s-.08.35-.17.5a.23.23,0,0,1,0-.17c-.53-.06-.15,1.6-.64,1.57.07-.18.3-.49.13-.69-.09.12-.22.12-.27.29a.4.4,0,0,0,0-.1l-.08,0c-.32.2-.29.67-.55.94a6.56,6.56,0,0,1-.84.69,1.26,1.26,0,0,0,.53-.12,4,4,0,0,0,.59-.24Z"/><path class="cls-1" d="M66.32,43.26c.36-.24,2.71-.79,2.76-.22l-.18.07c.16,0,.41.25.49.37a1.26,1.26,0,0,1,.17.9.68.68,0,0,1-.58.54c-.17,0-.46-.06-.45-.28.16.19.26-.11.26-.24s-.16-.35-.25-.52c0,.09.07.18,0,.25a1.47,1.47,0,0,0-.64-.51c-.19-.09-.74-.33-.91-.16.08.08.3,0,.41.09a.54.54,0,0,1,.37.38c-.08,0-.13-.08-.21-.11.16.21.27.9-.13.93,0-.11-.19-.15-.27-.23a1.75,1.75,0,0,0-.47-.43.38.38,0,0,1,.06.23,3,3,0,0,1-.56-.17,2.62,2.62,0,0,0-.74-.08,2.48,2.48,0,0,0-.57,0c-.13,0-.34.14-.48.11.12-.23.49-.34.69-.49Z"/><path class="cls-1" d="M52.33,42.07c-.23-.18-1.36,0-1.31.36l.06,0c-.07.15-.2.74.11.75a.72.72,0,0,1,.37-.58c-.05,0-.11.12-.06.19.08-.1.13-.21.3-.27a1,1,0,0,1,.52,0,.44.44,0,0,1,.37.29c0,.09,0,.33.13.32,0-.18.17-.42,0-.58Z"/><path class="cls-1" d="M55.64,44.86c.42-.34-.31-1-.59-.57-.14.21.21.38-.08.52a.43.43,0,0,1-.54-.25.2.2,0,0,0,.15.11c.12,0,.06-.05.07-.13s-.09-.26-.12-.41-.06-.73.25-.73c-.07.08-.24.25-.11.36,0-.06,0-.06.07-.08s0,.34.15.36a3.38,3.38,0,0,1,.24-.34.67.67,0,0,1,.26-.3,1.14,1.14,0,0,1,.84-.09,1.81,1.81,0,0,1,.86.5,3.18,3.18,0,0,1,.43.45,2.75,2.75,0,0,1,.19.43A2.31,2.31,0,0,0,56.42,43,1.6,1.6,0,0,0,55.07,43c-.81.23-1.52,1.3-.88,2.06a.77.77,0,0,0,.61.26,5.45,5.45,0,0,0,.65-.13Z"/><path class="cls-1" d="M56.27,47.47c.24-.31.88-.4.88-.88a.38.38,0,0,0-.12.08.81.81,0,0,0-.28-1.11c0,.15-.09.15-.16.25a.64.64,0,0,0-.09.35,1,1,0,0,1-.06-.26c0,.08-.14.15-.2.24a1,1,0,0,0-.07.39c0,.2-.1.75-.37.77,0-.18.41-.43.22-.64a.35.35,0,0,1,0,.08.61.61,0,0,0-.16-.42c0,.13-.13.15-.22.21a.56.56,0,0,0-.23.3,1.06,1.06,0,0,1-.37.61,2.07,2.07,0,0,1-1.19.32,3.42,3.42,0,0,0,.84.06,5.13,5.13,0,0,1,.82-.08Z"/><path class="cls-1" d="M71.74,42.55a3,3,0,0,1,.78.52c.13.12.45.57.26.73a1.05,1.05,0,0,1-.09-.14.64.64,0,0,1-.26.8.45.45,0,0,1-.43,0c-.11-.05-.27-.22-.13-.33.07.18.18.1.26,0s0-.19,0-.36a.15.15,0,0,1-.09.16,3.71,3.71,0,0,0-.23-.67c-.09-.19-.31-.58-.56-.55.12.16.69.5.36.76l-.08-.16c0,.16,0,.49-.19.53a1.93,1.93,0,0,0-.5-1A.41.41,0,0,1,71,43a2.33,2.33,0,0,1-.41-.3,1.54,1.54,0,0,0-.52-.19,8.22,8.22,0,0,0-1.1-.1c.08-.12.48-.14.62-.16a4.87,4.87,0,0,1,1.19.08Z"/><path class="cls-1" d="M76.73,42.44a2.07,2.07,0,0,1,1.29.67,1.2,1.2,0,0,1,.09,1.41.85.85,0,0,1-1.14.17c-.15-.11-.4-.74,0-.65,0,.07,0,.12,0,.19.22.06.19-.24.15-.36a2,2,0,0,1-.12-.53.23.23,0,0,0-.09.21c-.19-.09-.16-.34-.22-.5a1.17,1.17,0,0,0-.51-.6.72.72,0,0,1,.31.48.16.16,0,0,1-.13-.12.53.53,0,0,1-.15.63c0-.11-.19-.39-.25-.49a.87.87,0,0,0-.52-.36,3.71,3.71,0,0,0-1.25,0,1.87,1.87,0,0,1,1.12-.41,2.39,2.39,0,0,1,1,0Z"/><path class="cls-1" d="M79.8,43.8a3.7,3.7,0,0,0,2.55.49c0-.05-.14-.06-.21-.11.24.1.67-.13.88-.26a1.18,1.18,0,0,0,.54-.73c-.25,0-.46-.16-.71-.19a2.16,2.16,0,0,0-.89.17c.07-.07.19-.09.25-.17-.15,0-.28-.13-.43-.16a1.58,1.58,0,0,0-.58,0c-.16,0-1.23.53-1.27.31.11,0,.31,0,.34-.17-.14,0-.14-.07-.26-.11a1,1,0,0,0-.3,0c-.22,0-.42.07-.65.07a3.08,3.08,0,0,1-1.17-.32c.21.43.92.63,1.32.82Z"/><path class="cls-1" d="M87.93,40.3c.29-.1.81-.36.88-.69l-.14,0a1,1,0,0,0,.1-1.22.75.75,0,0,0-.69-.29c-.1,0-.33.19-.16.28,0-.13.19-.11.22,0s-.11.2-.2.25a.47.47,0,0,0-.16.59c0-.06-.06-.16-.1-.22-.31.28,0,.88-.34,1.13,0-.05,0-.12,0-.17s-.22.23-.36.29a1.27,1.27,0,0,1-.43.08.8.8,0,0,0,.49.15Z"/><path class="cls-1" d="M89.64,38.85a3.17,3.17,0,0,0,.26-.73c0-.18.07-.67-.15-.73a.57.57,0,0,0,0,.14c0-.35-.52-.64-.84-.53.13.12,0,.45.18.63a.16.16,0,0,1-.14-.16c0,.41.25.71.28,1.12a1.77,1.77,0,0,1-.07.54,2.15,2.15,0,0,0-.15.47c.16,0,.19-.07.26-.19Z"/><path class="cls-1" d="M87.69,37.21c.16-.07.35-.08.47-.22a.47.47,0,0,0,0-.57c-.29-.4-.76-.13-.68.3-.27.05-.28-.53-.23-.69a.14.14,0,0,0,.14.1c-.14-.35.24-.67.54-.74-.24-.27-.9.32-1,.54A.76.76,0,0,0,87.39,37Z"/><path class="cls-1" d="M89.74,33.45c.07-.3,0-.76.43-.86,0,.05,0,.07,0,.13a1.51,1.51,0,0,1,1.36-.14c-.15.1-.08.17-.15.32a1.08,1.08,0,0,1-.33.32c-.19.14-.67.17-.71.45a.66.66,0,0,1,.32-.21c.06.54-.53.92-.6,1.45a5.39,5.39,0,0,0,0,.71c0,.29.08.55.06.84-.15-.08-.16-.36-.18-.52a4.93,4.93,0,0,0-.08-.76Z"/><path class="cls-1" d="M92.21,30.53a4.08,4.08,0,0,1,.8-.45c.19-.08.73-.26.75-.5a.32.32,0,0,1-.14.06c.3-.1.46-.62.45-.9s-.3-.85-.75-.81c.14.09.07.2,0,.3a.68.68,0,0,0-.15.41.4.4,0,0,1-.07-.21,1.11,1.11,0,0,0-.25.21,1.28,1.28,0,0,0-.11.5c0,.22-.09.8-.37.86,0-.23.45-.56.15-.84a1.11,1.11,0,0,1-.07.13.48.48,0,0,0-.24-.42c-.1-.05-.45-.08-.39.11,0,0,.09,0,.12,0a.54.54,0,0,1-.08.41.91.91,0,0,0-.18.49.35.35,0,0,1-.06-.27c-.24.25-.15.54-.24.84a1.36,1.36,0,0,1-.51.74,3.33,3.33,0,0,0,.58-.2Z"/><path class="cls-1" d="M94.22,29.73c.21,0,.87-.22.93.13a.4.4,0,0,1-.14,0c.54-.08.76.88.67,1.24a.71.71,0,0,1-.56.6c-.18,0-.38-.06-.37-.28.17.08.24-.07.21-.22s-.18-.27-.22-.43c.07.14,0,.21-.11.18s-.2-.17-.28-.21a2.11,2.11,0,0,0-.93-.22,7.43,7.43,0,0,0-1.53.26c.18-.28.67-.25.91-.49Z"/><path class="cls-1" d="M50.64,50.38h0a1.91,1.91,0,0,1-1.5-.74,1.58,1.58,0,0,1-.26-.54,1.58,1.58,0,0,1-.26.54,1.91,1.91,0,0,1-1.5.74h0a2.14,2.14,0,0,1-2-1.33,9.23,9.23,0,0,1-2.5.34,8.63,8.63,0,0,1-2.78-.44,24.61,24.61,0,0,1-5-2.54,4.52,4.52,0,0,0-.48-.22,1.51,1.51,0,0,1,0,.79,1.91,1.91,0,0,1-1,1.1,2,2,0,0,1-.83.18,2.07,2.07,0,0,1-1.72-.93,2.41,2.41,0,0,1-.37-1.54h-.06a1.28,1.28,0,0,1-.53-.15,1.49,1.49,0,0,1-.76.3,2.29,2.29,0,0,1-.46,1.25,3.1,3.1,0,0,1-2.43,1.19l-.35,0a3.2,3.2,0,0,1-2.57-1.87,2.54,2.54,0,0,1-.53,1.07,2.83,2.83,0,0,1-2.12,1h-.07a3.4,3.4,0,0,1-2.59-1.12,2.84,2.84,0,0,1-.7-2l-.08,0a7.87,7.87,0,0,1-1.9.23,6.45,6.45,0,0,1-2.79-.6,4,4,0,0,1-2.33-3.4l-.23,0a4.27,4.27,0,0,1-2.31-1.51,4.43,4.43,0,0,1-1-2.89,1.12,1.12,0,0,1,0-.33l.05-.32.07-.4c0-.1,0-.19,0-.28a2.24,2.24,0,0,0,0-.25s0-.09,0-.14h0c0-.06,0-.12,0-.18a2.25,2.25,0,0,1-1.49.52A2.59,2.59,0,0,1,3.07,34.7a2.61,2.61,0,0,1-.35-2l-.26,0a1.71,1.71,0,0,1-1.38-1.34,2.45,2.45,0,0,1,.32-1.76A3.94,3.94,0,0,1,.32,28.28a3,3,0,0,1,.07-2.81l.19-.28C.51,25.1.44,25,.39,24.91A3,3,0,0,1,.32,22.1,3.93,3.93,0,0,1,1.4,20.77,2.45,2.45,0,0,1,1.08,19a1.71,1.71,0,0,1,1.38-1.34l.26,0a2.62,2.62,0,0,1,.35-2,2.59,2.59,0,0,1,2.16-1.09,2.26,2.26,0,0,1,1.49.51c0-.05,0-.11,0-.17s0-.1,0-.16a2.22,2.22,0,0,0,0-.25c0-.08,0-.18,0-.28l-.07-.4-.05-.32a1.16,1.16,0,0,1,0-.33,4.42,4.42,0,0,1,1-2.88A4.27,4.27,0,0,1,9.83,8.8l.23,0a4,4,0,0,1,2.33-3.4,6.47,6.47,0,0,1,2.79-.6,7.87,7.87,0,0,1,1.9.23l.08,0a2.84,2.84,0,0,1,.7-2,3.4,3.4,0,0,1,2.59-1.12h.07a2.84,2.84,0,0,1,2.12,1,2.54,2.54,0,0,1,.53,1.07A3.2,3.2,0,0,1,25.73,2l.35,0a3.1,3.1,0,0,1,2.43,1.19A2.29,2.29,0,0,1,29,4.45a1.5,1.5,0,0,1,.76.3,1.29,1.29,0,0,1,.53-.15h.06a2.41,2.41,0,0,1,.37-1.54,2.07,2.07,0,0,1,1.72-.93,2,2,0,0,1,.83.18,1.91,1.91,0,0,1,1,1.1,1.5,1.5,0,0,1,0,.79A4.42,4.42,0,0,0,34.82,4a24.62,24.62,0,0,1,5-2.54A8.66,8.66,0,0,1,42.58,1a9.23,9.23,0,0,1,2.5.34,2.13,2.13,0,0,1,2-1.33h0a1.91,1.91,0,0,1,1.5.74,1.59,1.59,0,0,1,.26.54,1.59,1.59,0,0,1,.26-.54A1.91,1.91,0,0,1,50.62,0h0a2.13,2.13,0,0,1,2,1.33A9.23,9.23,0,0,1,55.14,1a8.66,8.66,0,0,1,2.78.44,24.61,24.61,0,0,1,5,2.54,4.68,4.68,0,0,0,.48.22,1.51,1.51,0,0,1,0-.79,1.91,1.91,0,0,1,1-1.1,2,2,0,0,1,.83-.18A2.07,2.07,0,0,1,67,3.05,2.42,2.42,0,0,1,67.4,4.6h.06a1.3,1.3,0,0,1,.53.15,1.5,1.5,0,0,1,.76-.3,2.28,2.28,0,0,1,.46-1.25A3.11,3.11,0,0,1,71.64,2L72,2A3.2,3.2,0,0,1,74.56,3.9a2.54,2.54,0,0,1,.53-1.07,2.83,2.83,0,0,1,2.11-1A3.4,3.4,0,0,1,79.86,3a2.85,2.85,0,0,1,.7,2l.08,0a7.88,7.88,0,0,1,1.9-.23,6.46,6.46,0,0,1,2.79.6,4,4,0,0,1,2.33,3.4l.24,0a4.27,4.27,0,0,1,2.31,1.51,4.42,4.42,0,0,1,1,2.89,1.15,1.15,0,0,1,0,.33l-.05.32-.07.4c0,.1,0,.19,0,.28s0,.19,0,.25,0,.11,0,.16v.17a2.26,2.26,0,0,1,1.49-.51,2.59,2.59,0,0,1,2.16,1.09,2.63,2.63,0,0,1,.35,2l.26,0A1.71,1.71,0,0,1,96.64,19a2.44,2.44,0,0,1-.32,1.76,3.93,3.93,0,0,1,1.08,1.33,3,3,0,0,1-.07,2.81,3.08,3.08,0,0,1-.19.28,3.2,3.2,0,0,1,.19.28,3,3,0,0,1,.07,2.81,4,4,0,0,1-1.08,1.33,2.44,2.44,0,0,1,.32,1.76,1.71,1.71,0,0,1-1.38,1.34l-.26,0a2.63,2.63,0,0,1-.35,2,2.59,2.59,0,0,1-2.16,1.09A2.25,2.25,0,0,1,91,35.28v.17c0,.05,0,.11,0,.16a2.27,2.27,0,0,0,0,.24c0,.09,0,.18,0,.29l.07.4.05.32a1.19,1.19,0,0,1,0,.33,4.42,4.42,0,0,1-1,2.88,4.26,4.26,0,0,1-2.31,1.51l-.24,0A4,4,0,0,1,85.33,45a6.44,6.44,0,0,1-2.79.6,7.88,7.88,0,0,1-1.9-.23l-.08,0a2.84,2.84,0,0,1-.7,2,3.4,3.4,0,0,1-2.59,1.12h-.07a2.83,2.83,0,0,1-2.11-1,2.54,2.54,0,0,1-.53-1.07A3.2,3.2,0,0,1,72,48.34l-.35,0a3.1,3.1,0,0,1-2.43-1.19,2.29,2.29,0,0,1-.46-1.25,1.49,1.49,0,0,1-.76-.3,1.28,1.28,0,0,1-.53.15H67.4A2.41,2.41,0,0,1,67,47.32a2.07,2.07,0,0,1-1.72.93,2,2,0,0,1-.83-.18,1.91,1.91,0,0,1-1-1.1,1.51,1.51,0,0,1,0-.79,4.71,4.71,0,0,0-.49.22,24.6,24.6,0,0,1-5,2.54,8.63,8.63,0,0,1-2.78.44,9.23,9.23,0,0,1-2.5-.34A2.13,2.13,0,0,1,50.64,50.38ZM45.13,49v0a2.07,2.07,0,0,0,1.95,1.32h0a1.84,1.84,0,0,0,1.44-.72,1.52,1.52,0,0,0,.28-.66l0-.19,0,.19a1.52,1.52,0,0,0,.28.66,1.84,1.84,0,0,0,1.45.72h0A2.07,2.07,0,0,0,52.59,49v0h0a9.12,9.12,0,0,0,2.51.35,8.61,8.61,0,0,0,2.75-.44,24.59,24.59,0,0,0,5-2.53,4.54,4.54,0,0,1,.55-.25l.06,0,0,.06a1.43,1.43,0,0,0,0,.82,1.84,1.84,0,0,0,1,1.06,1.94,1.94,0,0,0,.8.17,2,2,0,0,0,1.67-.9,2.35,2.35,0,0,0,.36-1.53v0h.13a1.23,1.23,0,0,0,.52-.15h0a1.43,1.43,0,0,0,.77.3h0v0a2.21,2.21,0,0,0,.45,1.24,3,3,0,0,0,2.38,1.16l.34,0a3.12,3.12,0,0,0,2.56-1.93l0-.11,0,.11a2.46,2.46,0,0,0,.54,1.14,2.77,2.77,0,0,0,2.07,1h.07a3.33,3.33,0,0,0,2.54-1.1,2.78,2.78,0,0,0,.68-2v0h0l.12,0a7.8,7.8,0,0,0,1.88.23A6.39,6.39,0,0,0,85.3,45,3.94,3.94,0,0,0,87.6,41.6v0h0l.26,0A4.22,4.22,0,0,0,90.16,40a4.37,4.37,0,0,0,1-2.84,1.1,1.1,0,0,0,0-.32l-.05-.32-.07-.4c0-.1,0-.2,0-.28a1.7,1.7,0,0,1,0-.25c0-.05,0-.11,0-.16s0-.17,0-.24v-.07l.05,0a2.17,2.17,0,0,0,1.5.55,2.52,2.52,0,0,0,2.1-1.06,2.56,2.56,0,0,0,.33-2v0h0a1.39,1.39,0,0,0,.29,0,1.65,1.65,0,0,0,1.33-1.29,2.37,2.37,0,0,0-.33-1.74l0,0,0,0a3.88,3.88,0,0,0,1.08-1.33,2.83,2.83,0,0,0-.26-3l0,0,0,0a2.83,2.83,0,0,0,.26-3,3.89,3.89,0,0,0-1.08-1.33l0,0,0,0A2.37,2.37,0,0,0,96.58,19a1.65,1.65,0,0,0-1.33-1.29,1.39,1.39,0,0,0-.29,0h0v0a2.56,2.56,0,0,0-.33-2,2.52,2.52,0,0,0-2.1-1.06,2.17,2.17,0,0,0-1.5.55l-.05,0v-.07c0-.08,0-.16,0-.24s0-.11,0-.16a1.67,1.67,0,0,1,0-.25c0-.09,0-.18,0-.28l.07-.41.05-.32a1.05,1.05,0,0,0,0-.31,4.38,4.38,0,0,0-1-2.85,4.21,4.21,0,0,0-2.28-1.48l-.26,0h0v0A3.94,3.94,0,0,0,85.3,5.41a6.4,6.4,0,0,0-2.77-.59,7.8,7.8,0,0,0-1.88.23l-.12,0h0v0a2.78,2.78,0,0,0-.68-2,3.33,3.33,0,0,0-2.61-1.1,2.77,2.77,0,0,0-2.07,1A2.46,2.46,0,0,0,74.6,4l0,.11,0-.11A3.12,3.12,0,0,0,72,2.1l-.34,0a3,3,0,0,0-2.37,1.17,2.21,2.21,0,0,0-.45,1.24v0h0a1.43,1.43,0,0,0-.77.3h0a1.22,1.22,0,0,0-.52-.15h-.13v0A2.35,2.35,0,0,0,67,3.09a2,2,0,0,0-1.67-.9,1.92,1.92,0,0,0-.8.17,1.84,1.84,0,0,0-1,1.06,1.43,1.43,0,0,0,0,.82l0,.06-.06,0A4.77,4.77,0,0,1,62.88,4a24.6,24.6,0,0,0-5-2.53,8.58,8.58,0,0,0-2.75-.44,9.16,9.16,0,0,0-2.51.35h0v0a2.07,2.07,0,0,0-2-1.32h0a1.84,1.84,0,0,0-1.44.72,1.52,1.52,0,0,0-.28.65l0,.19,0-.19a1.51,1.51,0,0,0-.28-.65A1.84,1.84,0,0,0,47.1.07h0a2.07,2.07,0,0,0-1.95,1.32v0h0a9.15,9.15,0,0,0-2.51-.35,8.59,8.59,0,0,0-2.75.44,24.57,24.57,0,0,0-5,2.53,4.78,4.78,0,0,1-.55.25l-.06,0,0-.06a1.44,1.44,0,0,0,0-.82,1.84,1.84,0,0,0-1-1.06,1.93,1.93,0,0,0-.8-.17,2,2,0,0,0-1.67.9,2.36,2.36,0,0,0-.36,1.53v0h-.13a1.22,1.22,0,0,0-.52.15h0a1.43,1.43,0,0,0-.77-.3h0v0a2.22,2.22,0,0,0-.45-1.24,3,3,0,0,0-2.38-1.17l-.34,0A3.12,3.12,0,0,0,23.18,4l0,.11,0-.11a2.45,2.45,0,0,0-.54-1.14,2.77,2.77,0,0,0-2.07-1h-.07A3.33,3.33,0,0,0,17.91,3a2.79,2.79,0,0,0-.68,2v0h0l-.12,0a7.79,7.79,0,0,0-1.88-.23,6.4,6.4,0,0,0-2.77.59,3.94,3.94,0,0,0-2.29,3.37v0h0l-.26,0a4.2,4.2,0,0,0-2.28,1.48,4.37,4.37,0,0,0-1,2.84,1.12,1.12,0,0,0,0,.32l.05.32.07.4c0,.1,0,.2,0,.28a2.12,2.12,0,0,1,0,.26c0,.05,0,.1,0,.16s0,.17,0,.24v.07l-.05,0a2.17,2.17,0,0,0-1.5-.55,2.52,2.52,0,0,0-2.1,1.06,2.55,2.55,0,0,0-.33,2v0h0a1.39,1.39,0,0,0-.29,0A1.65,1.65,0,0,0,1.14,19a2.37,2.37,0,0,0,.33,1.74l0,0,0,0A3.9,3.9,0,0,0,.38,22.13a2.91,2.91,0,0,0,.07,2.75,3.28,3.28,0,0,0,.2.29l0,0,0,0c-.07.09-.14.19-.2.29a2.91,2.91,0,0,0-.07,2.75,3.89,3.89,0,0,0,1.09,1.33l0,0,0,0a2.37,2.37,0,0,0-.33,1.74,1.65,1.65,0,0,0,1.33,1.29,1.39,1.39,0,0,0,.29,0h0v0a2.55,2.55,0,0,0,.33,2,2.52,2.52,0,0,0,2.1,1.06,2.17,2.17,0,0,0,1.5-.55l.05,0v.07c0,.08,0,.16,0,.25h0s0,.09,0,.14a2.17,2.17,0,0,1,0,.25c0,.09,0,.18,0,.28l-.07.41-.05.32a1.08,1.08,0,0,0,0,.31,4.37,4.37,0,0,0,1,2.85,4.2,4.2,0,0,0,2.28,1.48l.26,0h0v0A3.94,3.94,0,0,0,12.42,45a6.4,6.4,0,0,0,2.77.59,7.79,7.79,0,0,0,1.88-.23l.12,0h0v0a2.78,2.78,0,0,0,.68,2,3.33,3.33,0,0,0,2.54,1.1h.07a2.77,2.77,0,0,0,2.07-1,2.45,2.45,0,0,0,.54-1.14l0-.11,0,.11a3.12,3.12,0,0,0,2.56,1.93l.34,0a3,3,0,0,0,2.38-1.16,2.23,2.23,0,0,0,.45-1.24v0h0a1.42,1.42,0,0,0,.77-.3h0a1.24,1.24,0,0,0,.52.15h.13v0a2.35,2.35,0,0,0,.36,1.53,2,2,0,0,0,1.67.9,1.94,1.94,0,0,0,.8-.17,1.85,1.85,0,0,0,1-1.06,1.45,1.45,0,0,0,0-.82l0-.06.06,0a4.61,4.61,0,0,1,.55.25,24.6,24.6,0,0,0,5,2.54,8.59,8.59,0,0,0,2.75.44A9.11,9.11,0,0,0,45.1,49Z"/><path class="cls-1" d="M50.64,50.15h0a1.68,1.68,0,0,1-1.32-.65,1.34,1.34,0,0,1-.26-.62l-.19-.44-.18.44a1.36,1.36,0,0,1-.26.63,1.68,1.68,0,0,1-1.32.65h0a1.93,1.93,0,0,1-1.86-1.38l-.11,0a9,9,0,0,1-2.53.36,8.4,8.4,0,0,1-2.7-.43,24.5,24.5,0,0,1-5-2.52,5,5,0,0,0-1-.39l0,.05a1.29,1.29,0,0,1,.1,1,1.68,1.68,0,0,1-.92,1,1.75,1.75,0,0,1-.73.16,1.84,1.84,0,0,1-1.53-.83,2.19,2.19,0,0,1-.3-1.63l-.31,0a1,1,0,0,1-.57-.21,1.27,1.27,0,0,1-.91.37h0A2.07,2.07,0,0,1,28.33,47a2.87,2.87,0,0,1-2.25,1.1l-.32,0A2.94,2.94,0,0,1,23.13,45a1.3,1.3,0,0,1-.36-.28,1.27,1.27,0,0,1-.2-.3l.18.71.07.12a2,2,0,0,1-.34,2.12,2.6,2.6,0,0,1-1.95.92h-.06a3.17,3.17,0,0,1-2.42-1,2.68,2.68,0,0,1-.61-2.21l-.39.11a7.62,7.62,0,0,1-1.84.23,6.24,6.24,0,0,1-2.7-.57,3.74,3.74,0,0,1-2.2-3.39,2.89,2.89,0,0,1-.41-.06,4,4,0,0,1-2.19-1.43,4.19,4.19,0,0,1-.93-2.75.9.9,0,0,1,0-.28l.05-.32.07-.41c0-.1,0-.19,0-.28a2.28,2.28,0,0,0,0-.28c0-.05,0-.1,0-.15a3.4,3.4,0,0,0,0-.46.69.69,0,0,0-.09-.19,1.44,1.44,0,0,1-.15.18,2,2,0,0,1-1.45.57,2.36,2.36,0,0,1-2-1,2.4,2.4,0,0,1-.27-2l0-.14a1.18,1.18,0,0,1-.54,0A1.47,1.47,0,0,1,1.3,31.31a2.22,2.22,0,0,1,.37-1.7l0,0A3.9,3.9,0,0,1,.52,28.18a2.75,2.75,0,0,1,.06-2.6,3.09,3.09,0,0,1,.28-.39,3.09,3.09,0,0,1-.28-.39,2.75,2.75,0,0,1-.06-2.6,3.9,3.9,0,0,1,1.19-1.39l0,0a2.22,2.22,0,0,1-.37-1.7,1.47,1.47,0,0,1,1.19-1.17,1.19,1.19,0,0,1,.54,0l0-.14a2.4,2.4,0,0,1,.27-2,2.36,2.36,0,0,1,2-1,2,2,0,0,1,1.45.57l.15.18a.69.69,0,0,0,.09-.19,3.35,3.35,0,0,0,0-.45c0-.05,0-.1,0-.15a2.31,2.31,0,0,0,0-.28c0-.08,0-.18,0-.28l-.07-.41-.05-.32a.9.9,0,0,1,0-.28,4.19,4.19,0,0,1,.93-2.75A4,4,0,0,1,9.88,9,2.74,2.74,0,0,1,10.29,9a3.74,3.74,0,0,1,2.2-3.39A6.23,6.23,0,0,1,15.19,5,7.67,7.67,0,0,1,17,5.21l.39.11A2.68,2.68,0,0,1,18,3.11a3.17,3.17,0,0,1,2.42-1h.06A2.61,2.61,0,0,1,22.46,3a2,2,0,0,1,.34,2.12l-.06.12-.18.72a1.27,1.27,0,0,1,.2-.3,1.31,1.31,0,0,1,.36-.28,2.94,2.94,0,0,1,2.64-3.1l.32,0a2.87,2.87,0,0,1,2.25,1.1,2.07,2.07,0,0,1,.42,1.33h0a1.27,1.27,0,0,1,.91.37,1,1,0,0,1,.57-.21l.31,0a2.19,2.19,0,0,1,.3-1.63,1.84,1.84,0,0,1,1.53-.83,1.77,1.77,0,0,1,.73.16,1.68,1.68,0,0,1,.92,1,1.29,1.29,0,0,1-.1,1l0,.05a5.11,5.11,0,0,0,1-.39,24.44,24.44,0,0,1,5-2.52,8.43,8.43,0,0,1,2.7-.43,9,9,0,0,1,2.53.36l.11,0A1.93,1.93,0,0,1,47.08.23h0a1.68,1.68,0,0,1,1.32.65,1.35,1.35,0,0,1,.26.62l.19.44L49,1.5A1.34,1.34,0,0,1,49.3.88,1.68,1.68,0,0,1,50.62.23h0A1.93,1.93,0,0,1,52.5,1.61l.11,0a9,9,0,0,1,2.53-.36,8.44,8.44,0,0,1,2.7.43,24.49,24.49,0,0,1,5,2.52,5,5,0,0,0,1,.39l0-.05a1.29,1.29,0,0,1-.1-1,1.68,1.68,0,0,1,.93-1,1.76,1.76,0,0,1,.73-.16,1.84,1.84,0,0,1,1.53.83,2.18,2.18,0,0,1,.3,1.63l.31,0A1,1,0,0,1,68,5a1.27,1.27,0,0,1,.91-.37h0a2.06,2.06,0,0,1,.42-1.33,2.87,2.87,0,0,1,2.25-1.1l.32,0a2.94,2.94,0,0,1,2.64,3.1,1.31,1.31,0,0,1,.36.28,1.24,1.24,0,0,1,.2.3L75,5.23l-.07-.12A2,2,0,0,1,75.26,3a2.61,2.61,0,0,1,1.95-.92,3.18,3.18,0,0,1,2.48,1,2.69,2.69,0,0,1,.61,2.21l.39-.11A7.69,7.69,0,0,1,82.54,5a6.23,6.23,0,0,1,2.7.57A3.74,3.74,0,0,1,87.43,9a2.77,2.77,0,0,1,.41.06A4,4,0,0,1,90,10.45,4.19,4.19,0,0,1,91,13.2a.91.91,0,0,1,0,.28l-.05.32-.07.41c0,.1,0,.19,0,.28a2,2,0,0,0,0,.28c0,.05,0,.1,0,.15a3.28,3.28,0,0,0,0,.45.74.74,0,0,0,.09.19l.15-.18a2,2,0,0,1,1.45-.57,2.36,2.36,0,0,1,2,1,2.39,2.39,0,0,1,.27,2l0,.14a1.18,1.18,0,0,1,.54,0,1.47,1.47,0,0,1,1.2,1.17,2.22,2.22,0,0,1-.37,1.7l0,0A3.89,3.89,0,0,1,97.2,22.2a2.74,2.74,0,0,1-.06,2.6,2.85,2.85,0,0,1-.28.39,2.85,2.85,0,0,1,.28.39,2.74,2.74,0,0,1,.06,2.6A3.89,3.89,0,0,1,96,29.57l0,0a2.22,2.22,0,0,1,.37,1.7,1.47,1.47,0,0,1-1.2,1.17,1.18,1.18,0,0,1-.54,0l0,.14a2.39,2.39,0,0,1-.27,2,2.36,2.36,0,0,1-2,1A2,2,0,0,1,91,35a1.51,1.51,0,0,1-.15-.18.74.74,0,0,0-.09.19,3.24,3.24,0,0,0,0,.45c0,.05,0,.11,0,.16a1.91,1.91,0,0,0,0,.28c0,.09,0,.18,0,.28l.07.41.05.32a.92.92,0,0,1,0,.28A4.19,4.19,0,0,1,90,39.93a4.05,4.05,0,0,1-2.19,1.43,2.92,2.92,0,0,1-.41.06,3.74,3.74,0,0,1-2.2,3.39,6.24,6.24,0,0,1-2.7.57,7.64,7.64,0,0,1-1.84-.23l-.39-.11a2.69,2.69,0,0,1-.61,2.21,3.17,3.17,0,0,1-2.41,1h-.07a2.61,2.61,0,0,1-1.95-.92,2,2,0,0,1-.34-2.12l.06-.11.18-.72a1.23,1.23,0,0,1-.2.3,1.31,1.31,0,0,1-.36.28A2.94,2.94,0,0,1,72,48.12l-.32,0A2.87,2.87,0,0,1,69.4,47,2.06,2.06,0,0,1,69,45.7h0a1.27,1.27,0,0,1-.91-.37,1,1,0,0,1-.57.21l-.31,0a2.18,2.18,0,0,1-.3,1.63,1.84,1.84,0,0,1-1.53.83,1.75,1.75,0,0,1-.73-.16,1.68,1.68,0,0,1-.93-1,1.29,1.29,0,0,1,.1-1l0-.05a5,5,0,0,0-1,.39,24.47,24.47,0,0,1-5,2.52,8.41,8.41,0,0,1-2.7.43,9,9,0,0,1-2.53-.36l-.11,0A1.93,1.93,0,0,1,50.64,50.15Zm-5.23-1.72,0,.14a1.68,1.68,0,0,0,1.64,1.32h0a1.41,1.41,0,0,0,1.11-.55,1.08,1.08,0,0,0,.2-.83v-.07l.06,0,.13-.13.12-.15.15-.35.15.35.12.15.13.13.06,0v.07a1.08,1.08,0,0,0,.2.83,1.41,1.41,0,0,0,1.11.55h0a1.68,1.68,0,0,0,1.64-1.32l0-.14.14,0,.23.07a8.73,8.73,0,0,0,2.46.35,8.18,8.18,0,0,0,2.62-.42,24.25,24.25,0,0,0,4.9-2.5h0a5.35,5.35,0,0,1,1.16-.45l.27-.07.45-.1-.34.32A1.25,1.25,0,0,0,64,46a1,1,0,0,0-.08.83,1.42,1.42,0,0,0,.79.81,1.49,1.49,0,0,0,.63.13,1.58,1.58,0,0,0,1.31-.71,1.94,1.94,0,0,0,.23-1.58l0-.15.62,0a.77.77,0,0,0,.51-.23L68,45l.09.13.06.08a1,1,0,0,0,.73.29h.17l.17,0,0,.17a1.8,1.8,0,0,0,.36,1.31,2.6,2.6,0,0,0,2,1l.29,0A2.69,2.69,0,0,0,74.34,45s0,0,0,0v-.12l.08,0a1.05,1.05,0,0,0,.36-.25,1,1,0,0,0,.25-.81.66.66,0,0,0-.27-.47l-.3-.21.37,0H75a1.51,1.51,0,0,1,.35,0,.35.35,0,0,1,.2.13l.06.09.06.09,0,0-.3,1.21.85-.6,0,.22s0,.08,0,.12l0,.12-.12,0a1.62,1.62,0,0,0-1,.84,1.7,1.7,0,0,0,.31,1.84,2.34,2.34,0,0,0,1.75.82,2.92,2.92,0,0,0,2.28-1A2.5,2.5,0,0,0,80,44.89l0-.22.21.07.57.17a7.41,7.41,0,0,0,1.78.22,6,6,0,0,0,2.58-.55,3.46,3.46,0,0,0,2-3.27v-.13h.13a2.62,2.62,0,0,0,.49-.07,3.79,3.79,0,0,0,2-1.34,3.92,3.92,0,0,0,.87-2.59h0a.65.65,0,0,0,0-.21l-.05-.32-.07-.42h0c0-.09,0-.18,0-.27a2.71,2.71,0,0,1,0-.31c0-.05,0-.1,0-.15a3.86,3.86,0,0,1,0-.49,1.33,1.33,0,0,1,.22-.43l.14-.22.1.2a1.37,1.37,0,0,0,.22.31,1.72,1.72,0,0,0,1.27.49,2.09,2.09,0,0,0,1.75-.87,2.15,2.15,0,0,0,.24-1.79,2.49,2.49,0,0,0-.18-.43L94,31.69l.47.37a.89.89,0,0,0,.69.17,1.22,1.22,0,0,0,1-1,2,2,0,0,0-.33-1.48l-.12-.13-.11-.11.12-.09A3.75,3.75,0,0,0,97,28.07a2.49,2.49,0,0,0,0-2.35,2.7,2.7,0,0,0-.33-.44l-.08-.09.08-.09a2.75,2.75,0,0,0,.33-.44,2.49,2.49,0,0,0,0-2.35,3.75,3.75,0,0,0-1.22-1.38l-.12-.09.11-.11.12-.13a2,2,0,0,0,.33-1.48,1.22,1.22,0,0,0-1-1,.88.88,0,0,0-.68.17l-.47.37.27-.53a2.56,2.56,0,0,0,.18-.44,2.15,2.15,0,0,0-.24-1.79,2.09,2.09,0,0,0-1.75-.87,1.71,1.71,0,0,0-1.27.49,1.33,1.33,0,0,0-.22.31l-.1.2-.14-.22a1.34,1.34,0,0,1-.22-.43,3.88,3.88,0,0,1,0-.49c0-.05,0-.1,0-.15a2.69,2.69,0,0,1,0-.31c0-.09,0-.18,0-.27h0l.07-.42.05-.32a.7.7,0,0,0,0-.21h0a3.93,3.93,0,0,0-.87-2.59,3.79,3.79,0,0,0-2-1.34,2.62,2.62,0,0,0-.49-.07h-.13V9.06a3.46,3.46,0,0,0-2-3.27,6,6,0,0,0-2.58-.55,7.36,7.36,0,0,0-1.78.22l-.57.17L80,5.71l0-.22a2.5,2.5,0,0,0-.52-2.21,2.93,2.93,0,0,0-2.28-1,2.34,2.34,0,0,0-1.75.83A1.7,1.7,0,0,0,75.15,5a1.62,1.62,0,0,0,1,.84l.12,0,0,.12s0,.08,0,.12l0,.22-.85-.6.3,1.21,0,0-.06.09-.06.09a.35.35,0,0,1-.2.13,1.46,1.46,0,0,1-.35,0h-.15l-.37,0,.3-.21A.66.66,0,0,0,75,6.63a1,1,0,0,0-.61-1.07l-.08,0V5.4s0,0,0,0a2.69,2.69,0,0,0-2.41-2.85l-.29,0a2.6,2.6,0,0,0-2,1,1.8,1.8,0,0,0-.36,1.31l0,.17-.17,0h-.17a1,1,0,0,0-.73.29l-.06.08L68,5.42l-.11-.11a.78.78,0,0,0-.51-.23l-.62,0,0-.15a1.94,1.94,0,0,0-.23-1.58,1.58,1.58,0,0,0-1.31-.71,1.5,1.5,0,0,0-.62.13,1.42,1.42,0,0,0-.79.81,1,1,0,0,0,.08.83,1.27,1.27,0,0,0,.23.3l.34.32-.45-.1-.27-.07a5.33,5.33,0,0,1-1.16-.45h0a24.25,24.25,0,0,0-4.9-2.5,8.16,8.16,0,0,0-2.62-.42,8.69,8.69,0,0,0-2.46.35l-.23.07-.14,0,0-.14A1.68,1.68,0,0,0,50.64.49h0A1.41,1.41,0,0,0,49.51,1a1.08,1.08,0,0,0-.2.83v.07l-.06,0-.13.13L49,2.25l-.15.35-.15-.35-.12-.15L48.46,2l-.06,0V1.86a1.08,1.08,0,0,0-.2-.83A1.41,1.41,0,0,0,47.1.49h0a1.68,1.68,0,0,0-1.64,1.32l0,.14-.13,0L45,1.83a8.7,8.7,0,0,0-2.46-.35A8.17,8.17,0,0,0,40,1.89a24.23,24.23,0,0,0-4.9,2.5h0a5.32,5.32,0,0,1-1.16.45l-.27.07-.46.1.34-.32a1.28,1.28,0,0,0,.23-.3,1,1,0,0,0,.08-.83A1.42,1.42,0,0,0,33,2.74a1.51,1.51,0,0,0-.63-.13,1.57,1.57,0,0,0-1.31.71,1.94,1.94,0,0,0-.23,1.58l0,.15-.62,0a.77.77,0,0,0-.51.23l-.11.11-.09-.13-.07-.08a1,1,0,0,0-.73-.29h-.17l-.17,0,0-.17a1.8,1.8,0,0,0-.36-1.31,2.6,2.6,0,0,0-2-1l-.29,0a2.69,2.69,0,0,0-2.41,2.85v.16l-.08,0a1,1,0,0,0-.61,1.07.65.65,0,0,0,.27.47l.3.21-.37,0h-.15a1.46,1.46,0,0,1-.35,0,.35.35,0,0,1-.2-.13l-.06-.09L22.08,7l0,0,.3-1.21-.85.6,0-.22a1,1,0,0,0,0-.12l0-.12.12,0a1.62,1.62,0,0,0,1-.84,1.7,1.7,0,0,0-.31-1.84,2.35,2.35,0,0,0-1.75-.83h-.06a2.91,2.91,0,0,0-2.22,1,2.49,2.49,0,0,0-.52,2.21l0,.22-.21-.07L17,5.46a7.35,7.35,0,0,0-1.78-.22,6,6,0,0,0-2.58.55,3.46,3.46,0,0,0-2,3.27V9.2h-.13a2.6,2.6,0,0,0-.49.07,3.79,3.79,0,0,0-2,1.34A3.92,3.92,0,0,0,7,13.2H7a.66.66,0,0,0,0,.21l.05.32.07.42h0c0,.1,0,.18,0,.27a2.5,2.5,0,0,1,0,.31c0,.05,0,.1,0,.15a3.47,3.47,0,0,1,0,.49,1.3,1.3,0,0,1-.22.43l-.14.22-.1-.2a1.36,1.36,0,0,0-.22-.31,1.71,1.71,0,0,0-1.27-.49,2.09,2.09,0,0,0-1.75.87,2.14,2.14,0,0,0-.24,1.79,2.54,2.54,0,0,0,.17.44l.27.53-.47-.37a.89.89,0,0,0-.69-.17,1.23,1.23,0,0,0-1,1,2,2,0,0,0,.33,1.48l.12.13.11.11L2,20.93A3.75,3.75,0,0,0,.76,22.31a2.49,2.49,0,0,0,0,2.35,2.84,2.84,0,0,0,.33.44l.08.09-.08.09a2.78,2.78,0,0,0-.33.44,2.49,2.49,0,0,0,0,2.35A3.76,3.76,0,0,0,2,29.44l.12.09L2,29.64l-.12.13a2,2,0,0,0-.33,1.48,1.23,1.23,0,0,0,1,1,.89.89,0,0,0,.69-.17l.47-.37-.27.53a2.52,2.52,0,0,0-.17.43,2.14,2.14,0,0,0,.24,1.79,2.09,2.09,0,0,0,1.75.87,1.72,1.72,0,0,0,1.27-.49,1.38,1.38,0,0,0,.22-.31l.1-.2.14.22a1.3,1.3,0,0,1,.22.43,3.49,3.49,0,0,1,0,.49c0,.05,0,.1,0,.15a2.56,2.56,0,0,1,0,.31c0,.09,0,.18,0,.27h0l-.07.42L7,36.94a.66.66,0,0,0,0,.21H7a3.92,3.92,0,0,0,.87,2.59,3.79,3.79,0,0,0,2,1.34,2.6,2.6,0,0,0,.49.07h.13v.13a3.46,3.46,0,0,0,2,3.27,6,6,0,0,0,2.58.55A7.4,7.4,0,0,0,17,44.91l.57-.17.21-.07,0,.22a2.5,2.5,0,0,0,.52,2.21,2.91,2.91,0,0,0,2.22,1h.06a2.34,2.34,0,0,0,1.75-.82,1.7,1.7,0,0,0,.31-1.84,1.62,1.62,0,0,0-1-.84l-.12,0,0-.12a.93.93,0,0,0,0-.12l0-.23.85.6L22,43.44l0,0,.06-.09.06-.09a.35.35,0,0,1,.2-.13,1.51,1.51,0,0,1,.35,0h.15l.37,0-.3.21a.66.66,0,0,0-.27.47,1,1,0,0,0,.61,1.07l.08,0V45a2.69,2.69,0,0,0,2.41,2.85l.29,0a2.6,2.6,0,0,0,2-1,1.8,1.8,0,0,0,.36-1.31l0-.17.17,0h.17a1,1,0,0,0,.73-.29l.07-.08.09-.13.11.11a.77.77,0,0,0,.51.23l.62,0,0,.15a1.94,1.94,0,0,0,.23,1.58,1.57,1.57,0,0,0,1.31.71,1.49,1.49,0,0,0,.63-.13,1.42,1.42,0,0,0,.79-.81,1,1,0,0,0-.08-.83,1.27,1.27,0,0,0-.23-.3l-.34-.32.46.1.27.07a5.37,5.37,0,0,1,1.16.45h0a24.29,24.29,0,0,0,4.9,2.5,8.19,8.19,0,0,0,2.62.42A8.74,8.74,0,0,0,45,48.55l.23-.07ZM22.33,43.49l.11.44a1.38,1.38,0,0,1,0-.21.92.92,0,0,1,.15-.41l-.13,0,0,0-.06.09Zm52.81-.18a.91.91,0,0,1,.15.41,1.47,1.47,0,0,1,0,.21l.11-.44,0,0-.07-.1,0,0Zm.15-36.87a1.49,1.49,0,0,1,0,.21.9.9,0,0,1-.15.41l.13,0,0,0,.06-.09,0,0ZM22.42,7l0,0,.13,0a.91.91,0,0,1-.15-.41,1.36,1.36,0,0,1,0-.21l-.11.44,0,0Z"/><path class="cls-1" d="M6.61,26.81c.15.41-.2.32-.26.52C6.68,27.82,7,26.94,6.61,26.81Z"/><path class="cls-1" d="M6.09,27.59c0,.34-.5.1-.39.52.37-.11.34.18.65.13C6.37,27.92,6.37,27.61,6.09,27.59Z"/><path class="cls-1" d="M31.66,23.18c.07.26-.72.3-.26.52C31.36,23.47,32,23.29,31.66,23.18Z"/><path class="cls-1" d="M6,27.33c.38-.53.11-.81,0-1.42.16-.24.31-.47.58-.46a.13.13,0,0,0,.14-.13.13.13,0,0,0-.13-.14c-.42,0-.63.31-.81.58l0,0v0a9,9,0,0,0-1.15,1.15,4.47,4.47,0,0,0-.59.2l-.35.13,0-.05c-.68.15-.78-.28-1.11-.49v-.08a.2.2,0,0,0-.18-.22.2.2,0,0,0-.22.18.51.51,0,0,0,.1.44l0,0c0,.73.57,1,1,1.3a2.39,2.39,0,0,1,.52-.91h0l.3-.11a3.71,3.71,0,0,1,.64-.21l0,.07C4.91,27.43,5.52,27.29,6,27.33Z"/><path class="cls-1" d="M6.46,26.08a.08.08,0,0,0,.06.1h0a.08.08,0,0,0,.08-.06s0,0,.09-.07a.08.08,0,0,0-.07-.15A.28.28,0,0,0,6.46,26.08Z"/><path class="cls-2" d="M95.46,26.54a.2.2,0,0,0-.22.18v.1c-.3.17-.47.46-1,.38l0,.07a3.57,3.57,0,0,1-.63-.23l-.19-.08h0a4.55,4.55,0,0,1,.13-3.63h0l.34-.15.36-.16,0,.06c.59-.11.65.3,1,.39h0a3.77,3.77,0,0,1,0,.46.17.17,0,0,0,.17.18h0a.17.17,0,0,0,.17-.17,3.38,3.38,0,0,0,0-.6h.05a1.86,1.86,0,0,0-1.17-1.43c.06.49-.26.61-.39.91h0l-.34.15-.37.16,0-.06c-.8.06-1.24-.23-2.08-.13.13-.34.6-.35.78-.65C91,22.13,90.86,21,90.7,19.93c-1.32-.72-2.09-2-1.95-4.15C86,16.5,85.18,13,87.33,12.4a.63.63,0,0,1-.26-.65,1.94,1.94,0,0,1-1.95-.39c-2,.87-3.27-2.05-1.76-3.07A2.15,2.15,0,0,1,84,8.15l.36-.06v0a2.59,2.59,0,0,1,1,.52l0,0a1.17,1.17,0,0,1-.22.91.66.66,0,0,1-.53.24h0a.1.1,0,1,0,0,.2h0a.87.87,0,0,0,.68-.31,1.36,1.36,0,0,0,.27-1h0A2,2,0,0,0,84.08,7c-.06.39.21.45.14.86l-.27,0A2.71,2.71,0,0,0,83.3,8a8.67,8.67,0,0,0-2.46.26c1.34,1.94-2.21,3.56-2.6,1.3a1.84,1.84,0,0,1,.39-.91c-2.09.17-4.52.63-5.71-.65C70.26,10.08,66,8,63.84,6.82c-.05,1.69-3.23,1.74-3.11-.13l-.06,0a1.41,1.41,0,0,0,.1-.33.11.11,0,0,0-.21,0,1.08,1.08,0,0,1-.07.25v0c-.4.12-.75,1-1,.78a2.12,2.12,0,0,0-.78-2.21c.1,2.45-3.13,4.18-4.93,2.34-.07,2-2.54,2.13-3.76,1-.49-.44-.48-1.08-.91-1.43C47.95,8,47.18,9.76,44.89,9c-.13-.34-.51-.44-.65-.78-.26-.09,0-.72-.26-.78-1.56,1.8-4.67.19-4.8-1.82h0l0-.12a.74.74,0,0,1,0-.15.13.13,0,0,0,0-.18.13.13,0,0,0-.18,0,.82.82,0,0,0-.08.21v.05c-.76.28-.61,1-.51,1.94-.42-.22-.61-.69-1-.91v0l-.11-.17-.09-.14a.13.13,0,0,0-.22.16l.08.12.09.15c-.13,1.92-3,1.62-3.37.11-2,1.43-6.4,3.13-9.08,1.17-.91,1.53-3.8.54-5.45.78.33.14.25.7.26,1.17-1.22,2-3.64-.53-2.6-1.95-.7.39-1.55-.17-2.47,0h0a2.12,2.12,0,0,0-.68-.15l-.22,0A4.13,4.13,0,0,1,13.75,7a1.85,1.85,0,0,0-1.56,1.69h0a1,1,0,0,0,.16,1,.9.9,0,0,0,.69.34l.22,0a.08.08,0,0,0,0-.15.74.74,0,0,1-.76-.26.83.83,0,0,1-.15-.8,2.4,2.4,0,0,1,1-.62v0l.34,0a1.91,1.91,0,0,1,.59.12h0c1.88,1,.4,4.12-1.95,3.11-.07.65-1.15.6-1.69.39a1.1,1.1,0,0,1-.13.78c2.2.59,1.2,4-1.56,3.24.16,2.11-.39,3.5-1.82,4,0,.86-.42,1.32-.52,2.08-.28.11-.44.34-.91.26,0,.49.54.44.75.73a1,1,0,0,1-.33.06,1.68,1.68,0,0,0-.3,0l0,0c-.54,0-.81.23-1.43.13l0,.06-.36-.16-.34-.15h0c-.25-.27-.41-.63-.65-.91-.44.49-1.62,1.5-.65,2.21a1,1,0,0,1,1.17-1l0-.06.37.16.34.15h0c.9.76-.33,2.17.65,2.72.58-.48,1.33-.78,1.42-1.75h0l.05-.09A.81.81,0,0,0,7,23.88a1,1,0,0,0,.22-.81c.17-.43.36-.84.87-.93a6.25,6.25,0,0,1-.65,2.21c.47.55-.5,1.45-.39,2.47.23.07.54.07.65.26v.07a.19.19,0,0,0,0,.06l-.11.17-.06.09a.11.11,0,0,0,0,.15l.06,0a.11.11,0,0,0,.09-.05l.06-.1.1-.16h0l.09,0,.1,0c-.4.31-.52,1.38-1.16,1.81a5.6,5.6,0,0,1,.26,1.3c1.54.49,1.83,2.24,1.95,4.15,2.36-1,3.78,2.63,1.43,3.11.16.23,0,.75.26.91.13-.26.5-.28.91-.26s.46.49.91.52c1.95-.75,3.44,1.82,1.95,3l0,0a3.64,3.64,0,0,1-1.21.29v-.05a1.52,1.52,0,0,1-1-.57.85.85,0,0,1,0-.51v-.1a1,1,0,0,1,.92-.5.08.08,0,0,0,.09-.07.08.08,0,0,0-.06-.09,1.15,1.15,0,0,0-1.08.58V41a1,1,0,0,0,0,.58h0a1.74,1.74,0,0,0,1.43,1.69,1.18,1.18,0,0,0-.11-.76,4.24,4.24,0,0,0,1.16-.3v0c.88,0,1.83-.13,2.34-.13-1.46-1.66,1.84-3.76,2.47-1.56a1.39,1.39,0,0,1-.39,1.17c.85.17,1.64-.32,2.47-.39,1.24-.1,2.17.42,3.11.39,0,.35-.22.26,0,.52a9.66,9.66,0,0,1,1.82-.78l0-.08a.7.7,0,0,0,.31.08.69.69,0,0,0,.23,0v0c.25-.23.86-.09,1.3-.13v0l.14,0a18.94,18.94,0,0,1,5.45,2.08c.31-1.61,3.09-1.66,3.24.12l-.07.1a1,1,0,0,0-.11.18A.13.13,0,0,0,37,44H37a.13.13,0,0,0,.12-.08.7.7,0,0,1,.08-.13l.11-.15v0c.4-.12.75-1,1-.78-.13.83-.24,1.61.52,1.82h0a1.79,1.79,0,0,0,.07.36.11.11,0,0,0,.11.08h0a.11.11,0,0,0,.08-.14,1.6,1.6,0,0,1-.06-.3h0c.14-2.2,3.21-3.66,4.93-1.95-.11-.54.25-.61.26-1a2.3,2.3,0,0,1,1.3-.65c1.7-.18,2.46,1.34,3.24,2.08a2,2,0,0,0,.52-3c0-.34.5-.1.39-.52-.09-2.88-1.86-4-1.82-6.49a1.45,1.45,0,0,1,.52,1.43c.67,1,.67,1.84,1.17,2.85.94.21.63,1.66,1,2.08-.06.33.6-.31.65.13a2,2,0,0,0,0,1.56c1.34-.51,2.19.58,2.47,1.56A1.91,1.91,0,0,1,55,42c2.1-.37,3.41,1.53,3.76,3.25.23-.76.93-1.06.65-2.34.44.21.64.65,1,.91h0l.08.15a.14.14,0,0,0,.12.06l.08,0a.14.14,0,0,0,0-.2l-.07-.13,0-.09.06,0c0-1.84,3-1.76,3.11-.13,2.32-1.2,6.39-3.17,9.21-1.17.49-1.75,1.83-2.67,2.34-4.41h0l.06-.14c.3-.07.26-.48.47-.64l0,0a.4.4,0,0,0,.19.17l0,0v0a1.78,1.78,0,0,1-.14.22.08.08,0,0,0,0,.11l0,0a.08.08,0,0,0,.06,0,2.14,2.14,0,0,0,.14-.22c.33.51-.24.94-.53.63-.66,1.25-1.67,2.83-2.08,3.89,1.24-1,3.31-.23,4.93-.13-.07-.41-.38-.57-.39-1,.41-1.74,2.64-1.21,2.86.26.07.51-.22.84-.13,1.3.58-.4,1.3.16,2.08,0v0a3.9,3.9,0,0,1,.48.14,3.08,3.08,0,0,0,.7.18c.08.38-.14.46-.13.76a1.62,1.62,0,0,0,1.43-1.41,1.35,1.35,0,0,0-.09-1.3.12.12,0,0,0-.21.12,1.1,1.1,0,0,1,.06,1.1l0-.06c-.3.13-.42.45-.91.39l0,.05a2.34,2.34,0,0,1-.72-.17c-.15-.05-.3-.1-.46-.14h0c-.78-.7-.52-1.57-.26-2.72.92.32,1-1.1,1.56-1.56l0-.06.19.08h0l.06,0h0c-.26.3-.24.89-.52,1.17.53-.1.67.2,1.17.13s-.06-.82.39-.78c.1.57.73.13,1.3.39-.06-.41.18-.51.26-.78-.85-.06-1.18-.64-1.3-1.43l-.06,0a2.76,2.76,0,0,0,.15-.54,1.62,1.62,0,0,1,.28-.73l0,.08c.39-.66,1.8-.66,2.47-.65a3.67,3.67,0,0,1,1.82-4.15c-.06-.88.48-1.16.52-1.95.27-.07.37-.32.78-.26.1-.53-.62-.24-.52-.78a5.62,5.62,0,0,0,1.82-.13l0,0,.22.09a4.17,4.17,0,0,0,.58.22c.06.37.46.4.39.9a1.74,1.74,0,0,0,1.17-1.43h0c0-.06,0-.12,0-.18A.2.2,0,0,0,95.46,26.54ZM13.36,21.62Z"/></g></g></svg>