<svg xmlns="http://www.w3.org/2000/svg" viewBox="0 0 240.94 23.21"><defs><style>.cls-1{fill:#6a3906;fill-rule:evenodd;}</style></defs><title>text-divider-top</title><g id="Layer_2" data-name="Layer 2"><g id="Õ__1" data-name="Õº≤„_1"><path class="cls-1" d="M0,22v1.24H240.94V22H129.25a6.09,6.09,0,0,0,4.45-3,5.61,5.61,0,0,0-2.06-7.27c-4-2.29-8.38,2.13-6.2,5.23a2.61,2.61,0,0,0,3.14,1.14,2,2,0,0,0,.45-3.75,2,2,0,0,0-1.33-.13,1,1,0,0,0-.55.37c-.12.17-.22.46-.46.5-.46.08-.38-.65-.3-.88a2.82,2.82,0,0,1,1.83-1.56,3.52,3.52,0,0,1,3.31.61,4.72,4.72,0,0,1,1,1.31,3.66,3.66,0,0,1,.45,2,4.63,4.63,0,0,1-3.17,4.09,5.84,5.84,0,0,1-6.09-1.49A8.56,8.56,0,0,1,122,11.31a7.55,7.55,0,0,1,1.32-2.44,4.09,4.09,0,0,1,.93-.83,4.25,4.25,0,0,1,.94-.47A2.33,2.33,0,0,0,126,9.23c.62.62,2.15.45,2.15.45A2.33,2.33,0,0,1,129,6.86,4.57,4.57,0,0,1,131.7,6a7.59,7.59,0,0,1,5.49,1.77c2,1.8,2.69,4.2,1.33,6.61-.67,1.19-3.76,2.77-.6,3.84a3.21,3.21,0,0,0,3.15-.8,3.82,3.82,0,0,0,1.1-2.95q.41.59.84,1.16c3.09,4.12,8.07,6,12.71,4.07,2.43-1,3.41-2.69,5.57-4.08s4.3-1.56,6,.34c.45.51.88,2.31.05,2.74-1.19.62.39-1.75-1.78-2.38a2.07,2.07,0,0,0-2.49,1.27,2.52,2.52,0,0,0,.68,2.63,3.41,3.41,0,0,0,3.76.27,3.36,3.36,0,0,0,1.59-3,4,4,0,0,0-2.18-3.58c-3.54-1.9-6.79.4-9.22,3,0,0,1.67-3.09-.31-5.6a4.69,4.69,0,0,0-5-1.18,4,4,0,0,0-2.45,3A2.52,2.52,0,0,0,151.22,16a2.35,2.35,0,0,0,3-1,1.78,1.78,0,0,0-2.28-2.43c.57-1.51,2.92-1.59,4.15-.32a3.36,3.36,0,0,1,.7,3.73c-1.59,3.78-7.58,4.77-12-.45A13.16,13.16,0,0,1,143,12.75a3.13,3.13,0,0,0,3.09-1c1-1.38.25-4.1-1-3.48s-1.88.4-3.11-.14c-2.18-1-3-1.78-4.65-2.65a13.5,13.5,0,0,0-6-1.4,11.71,11.71,0,0,0-4.24.7,11.56,11.56,0,0,0-6.61,6.69,11.56,11.56,0,0,0-6.62-6.69,11.71,11.71,0,0,0-4.24-.7,13.5,13.5,0,0,0-6,1.4c-1.67.87-2.47,1.69-4.65,2.65-1.23.55-1.75.81-3.11.14s-2,2.1-1,3.48a3.13,3.13,0,0,0,3.09,1,13.16,13.16,0,0,1-1.73,2.76c-4.39,5.22-10.38,4.23-12,.45a3.36,3.36,0,0,1,.7-3.73C86.13,11,88.48,11,89,12.56A1.78,1.78,0,0,0,86.77,15a2.35,2.35,0,0,0,3,1A2.52,2.52,0,0,0,91,13.16a4,4,0,0,0-2.45-3,4.69,4.69,0,0,0-5,1.18c-2,2.52-.31,5.6-.31,5.6-2.43-2.63-5.69-4.92-9.22-3a4.05,4.05,0,0,0-2.18,3.58,3.36,3.36,0,0,0,1.59,3,3.41,3.41,0,0,0,3.76-.27,2.52,2.52,0,0,0,.68-2.63,2.07,2.07,0,0,0-2.49-1.27c-2.18.62-.59,3-1.78,2.38-.82-.43-.4-2.23.05-2.74,1.67-1.89,3.68-1.81,6-.34s3.14,3,5.57,4.08c4.64,2,9.62.06,12.71-4.07q.43-.57.84-1.16a3.82,3.82,0,0,0,1.1,2.95,3.21,3.21,0,0,0,3.15.8c3.17-1.07.07-2.65-.6-3.84-1.36-2.4-.68-4.81,1.33-6.61A7.59,7.59,0,0,1,109.24,6a4.58,4.58,0,0,1,2.7.91,2.34,2.34,0,0,1,.82,2.82s1.53.16,2.14-.45a2.33,2.33,0,0,0,.81-1.66,4.25,4.25,0,0,1,.94.47,4.09,4.09,0,0,1,.93.83,7.55,7.55,0,0,1,1.32,2.44,8.56,8.56,0,0,1-1.73,7.78,5.84,5.84,0,0,1-6.09,1.49,4.63,4.63,0,0,1-3.17-4.09,3.64,3.64,0,0,1,.46-2,4.68,4.68,0,0,1,1-1.31,3.52,3.52,0,0,1,3.31-.61,2.82,2.82,0,0,1,1.83,1.56c.08.24.16,1-.3.88-.24,0-.34-.33-.46-.5a1,1,0,0,0-.55-.37,1.94,1.94,0,0,0-1.33.13,2,2,0,0,0,.45,3.75,2.61,2.61,0,0,0,3.14-1.14c2.18-3.1-2.18-7.52-6.2-5.23A5.62,5.62,0,0,0,107.24,19a6.09,6.09,0,0,0,4.45,3Zm119.84-3.49a11.1,11.1,0,0,1-.56,3.49h-5a7.65,7.65,0,0,0,.84-.17c3.37-.93,4.67-4.61,4.67-4.61S119.84,18.4,119.84,18.48ZM126.68,22h-5a11.22,11.22,0,0,1-.56-3.49c0-.08.07-1.3.07-1.3s1.3,3.68,4.67,4.61A7.65,7.65,0,0,0,126.68,22ZM120.47,7.3a6.57,6.57,0,0,0-3.87-3.65A6.57,6.57,0,0,0,120.47,0a6.56,6.56,0,0,0,3.87,3.65A6.56,6.56,0,0,0,120.47,7.3Z"/></g></g></svg>